<?xml version="1.0" encoding="utf-8"?>
<!-- Generator: Adobe Illustrator 22.1.0, SVG Export Plug-In . SVG Version: 6.00 Build 0)  -->
<svg version="1.1" id="Layer_1_copy" xmlns="http://www.w3.org/2000/svg" xmlns:xlink="http://www.w3.org/1999/xlink" x="0px"
	 y="0px" viewBox="0 0 792 196.5" style="enable-background:new 0 0 792 196.5;" xml:space="preserve">
<style type="text/css">
	.st0{fill:#231F20;}
</style>
<title>logo-ps</title>
<g id="Page-1">
	<g id="logo-ps-blue">
		<path id="Shape" class="st0" d="M204.4,58.4c-0.7,2.5-1.6,5-2.6,7.5c-2.9,0.7-5.8,1.1-8.8,1.2c-12.2,0-17.5-8.2-17.5-15.7
			c0-9.8,7.5-16.5,18.6-16.5c2.9,0.1,5.7,0.5,8.4,1.3c0.4,2.6,0.7,4.7,1.1,7.5l-1.7,0.3c-1.4-5.4-4.8-7.2-8.9-7.2
			c-7.2,0-11.2,6.5-11.2,13.6c0,8.7,4.8,14.6,11.5,14.6c4.3,0,7-2.5,9.5-7.3L204.4,58.4z"/>
		<path id="Shape-2" class="st0" d="M231.8,54.9c0,7.9-6,12.1-12.3,12.1c-8.1,0-12.4-5.7-12.4-11.3c-0.1-6.6,5.2-12.1,11.8-12.2
			c0.2,0,0.4,0,0.6,0C227,43.5,231.8,48.5,231.8,54.9z M213.1,54.7c0,6.3,2.9,10.6,6.9,10.6c3.2,0,5.9-2.5,5.9-9.4
			c0-5.4-2.4-10.7-6.8-10.7C216,45.2,213.1,48.5,213.1,54.7L213.1,54.7z"/>
		<path id="Shape-3" class="st0" d="M254.8,59.8c-0.3,1.7-1,5.3-1.3,6.6h-18.9v-1.5c3.2-0.2,3.5-0.5,3.5-3.7V49.3
			c0-3.3-0.3-3.4-3.3-3.7v-1.5h12.1v1.5c-3.2,0.2-3.5,0.4-3.5,3.7v12.1c0,1.7,0.2,2.5,0.8,2.8c1.1,0.4,2.2,0.6,3.4,0.5
			c1.4,0.2,2.8-0.3,3.9-1.3c0.9-1.1,1.5-2.4,1.8-3.8L254.8,59.8z"/>
		<path id="Shape-4" class="st0" d="M281.2,45.6c-2.1,0.1-3,0.6-3.2,2c-0.2,1.9-0.3,3.8-0.3,5.7v2.6c0,3.7-0.7,6.7-2.6,8.6
			c-1.8,1.7-4.3,2.6-6.8,2.5c-2.3,0.1-4.5-0.5-6.5-1.7c-2-1.5-3.2-4-3.2-8v-7.9c0-3.3-0.3-3.4-3.2-3.7v-1.5h11.7v1.5
			c-2.9,0.3-3.2,0.5-3.2,3.7v6.8c0,5.5,2.1,8.2,5.8,8.2s5.9-3,5.9-8.6v-2.4c0-1.9-0.1-3.9-0.3-5.8c-0.2-1.4-1.1-1.8-3.7-2v-1.5h9.5
			L281.2,45.6z"/>
		<path id="Shape-5" class="st0" d="M313.3,45.6c-3.4,0.2-3.6,0.5-3.5,3.7l0.3,12c0,3.1,0.2,3.4,3.4,3.5v1.5h-11.8v-1.5
			c3.1-0.2,3.3-0.4,3.4-3.6l0.1-13.5H305l-7.9,18.3h-1.4l-7-18h-0.1l-0.4,8.6c-0.2,2-0.2,4-0.1,6c0.1,1.7,0.8,2.1,3.3,2.2v1.5h-8.9
			v-1.5c2-0.1,2.8-0.7,3.1-2.3c0.3-1.9,0.5-3.8,0.7-5.8l0.6-6.9c0.3-3.8,0-4.1-3.1-4.4v-1.5h8.4l6.1,14l6.6-14h8.6L313.3,45.6z"/>
		<path id="Shape-6" class="st0" d="M331.8,54.1c3.7,0.4,6.4,2.1,6.4,5.5c0,5.3-6,6.8-11.7,6.8h-10.1v-1.5c3-0.2,3.4-0.4,3.4-3.7
			V49.4c0-3.4-0.3-3.6-3.1-3.8v-1.5h12.3c5.1,0,8,1.5,8,5.1c0,3.1-2.9,4.4-5.1,4.8L331.8,54.1z M326.6,53.6c2.7,0,4.6-1,4.6-3.8
			c0.1-2.1-1.5-3.9-3.6-4c-0.2,0-0.4,0-0.7,0c-1.9,0-2.1,0.6-2.1,2v5.8L326.6,53.6z M324.8,61.3c0,2.9,1.1,3.4,2.7,3.4
			c2.5,0.1,4.7-1.8,4.8-4.3c0-0.2,0-0.4,0-0.6c0-3.4-2.4-4.5-5.8-4.5h-1.7L324.8,61.3z"/>
		<path id="Shape-7" class="st0" d="M341.7,66.4v-1.5c2.9-0.2,3.3-0.4,3.3-3.7V49.3c0-3.3-0.3-3.4-3.3-3.7v-1.5h11.8v1.5
			c-3,0.2-3.3,0.4-3.3,3.7v11.8c0,3.3,0.3,3.5,3.3,3.7v1.5L341.7,66.4z"/>
		<path id="Shape-8" class="st0" d="M369.4,66.4v-1.5l0.9-0.1c1.3-0.2,1.7-0.6,1-2.3l-1.1-2.9h-7.6c-0.3,0.8-0.6,1.8-1,3
			c-0.5,1.7,0,1.9,1.3,2.2l1.1,0.1v1.5h-9v-1.6c2.2-0.3,3.1-0.6,4.4-3.7l7.4-17.3l2.3-0.4l7.7,18.4c0.4,1.9,2.2,3.1,4.1,3v1.5
			L369.4,66.4z M366.4,49.5h-0.1l-3,8h6L366.4,49.5z"/>
		<path id="Shape-9" class="st0" d="M425.1,37.2c-2.7,0.1-3.8,1-4.1,2.8c-0.3,2.3-0.4,4.7-0.3,7v4.7c0,5.2-0.8,9.2-3.5,12.1
			c-2.3,2.2-5.4,3.5-8.6,3.4c-2.9,0.1-5.7-0.7-8.1-2.4c-2.7-2.1-4-5.6-4-11.2V42.2c0-4.4-0.4-4.6-4-5v-1.5H406v1.6
			c-3.5,0.3-4,0.6-4,5v10.4c0,7.3,2.7,11.5,8.1,11.5c6,0,8.4-4.8,8.4-12.7v-4.5c0-2.3-0.1-4.7-0.4-7c-0.3-1.7-1.3-2.5-4.6-2.7v-1.6
			h11.6L425.1,37.2z"/>
		<path id="Shape-10" class="st0" d="M450.3,45.6c-2,0.1-3.1,0.6-3.2,2c-0.2,2-0.3,4.1-0.3,6.1v13h-2.4l-14.2-16.9l0,0v7
			c0,2,0.1,4,0.3,6c0.2,1.5,1.2,1.9,3.7,2.1v1.5h-9.5v-1.4c2-0.2,3-0.6,3.2-2.1c0.3-2,0.4-4,0.3-6v-6.4c0-3.9-0.8-4.6-4-4.8v-1.5
			h7.8l12.8,14.5h0.1v-5c0-2-0.1-4-0.3-6c-0.2-1.5-1-2-3.7-2.1v-1.4h9.5L450.3,45.6z"/>
		<path id="Shape-11" class="st0" d="M452.2,66.4v-1.5c2.9-0.2,3.3-0.4,3.3-3.7V49.3c0-3.3-0.3-3.4-3.3-3.7v-1.5h11.8v1.5
			c-3,0.2-3.3,0.4-3.3,3.7v11.8c0,3.3,0.3,3.5,3.3,3.7v1.5L452.2,66.4z"/>
		<path id="Shape-12" class="st0" d="M492.1,45.6c-2.5,0.3-3.1,0.8-4.5,3.5c-1.7,3.1-4.8,10.6-7.7,17.7h-1.8
			c-2.6-6.2-5.4-12.8-7.8-18.3c-0.5-1.9-2.2-3.1-4.1-3v-1.5h11.5v1.5l-1.2,0.2c-1.3,0.2-1.5,0.7-0.8,2.4c1.3,3.2,3.2,7.7,5,12
			c1.4-3.3,4-9.8,4.6-11.7s0.5-2.5-1.2-2.7l-1-0.1v-1.5h8.8L492.1,45.6z"/>
		<path id="Shape-13" class="st0" d="M514.9,60.3c-0.3,2.1-0.7,4.1-1.3,6.1h-19.4v-1.5c3.2-0.2,3.5-0.5,3.5-3.8V49.4
			c0-3.4-0.3-3.5-3.2-3.7v-1.5h18.3c0,1,0.2,3.4,0.4,5.6l-1.5,0.1c-0.3-1-0.8-1.9-1.4-2.8c-0.6-0.8-1.5-1.1-3.9-1.1h-2
			c-1.3,0-1.4,0.1-1.4,1.4v6.5h3c2.7,0,3-0.3,3.4-2.5h1.6v7.2h-1.6c-0.4-2.2-0.7-2.7-3.4-2.7h-3v5.1c0,2,0.2,2.9,0.8,3.2
			c1.1,0.5,2.3,0.7,3.5,0.5c1.5,0.2,3-0.2,4.1-1.2c0.8-1,1.5-2.1,1.9-3.3L514.9,60.3z"/>
		<path id="Shape-14" class="st0" d="M541.5,66.7H540c-4.8,0-6.3-1.1-7.6-3.1c-1.2-1.6-2.2-3.4-3.1-5.2c-0.4-1.1-1.5-1.7-2.6-1.5
			H526v4.3c0,3.2,0.3,3.4,3.3,3.7v1.5h-11.8V65c3-0.2,3.4-0.4,3.4-3.7V49.2c0-3.2-0.3-3.4-3.2-3.7v-1.5h12c2.1-0.2,4.1,0.2,6,1.1
			c1.6,1,2.6,2.7,2.5,4.6c-0.1,2.7-2.1,5.1-4.7,5.7c1,1.8,2.2,3.5,3.4,5.2c0.8,1.2,1.7,2.3,2.7,3.4c0.7,0.6,1.5,1.1,2.3,1.3
			L541.5,66.7z M527.3,55.3c1.2,0.1,2.4-0.2,3.4-0.8c1.2-0.9,1.8-2.4,1.7-3.8c0.3-2.4-1.4-4.5-3.8-4.8c-0.3,0-0.5,0-0.8,0
			c-1.5,0-1.9,0.4-1.9,1.7v7.8L527.3,55.3z"/>
		<path id="Shape-15" class="st0" d="M557.8,50.6c-0.9-3-2.6-5.4-5.4-5.4c-1.8-0.1-3.3,1.2-3.4,3c0,0.1,0,0.2,0,0.2
			c0,2.2,1.8,3.1,3.6,3.8l1.2,0.5c3.7,1.5,6.6,3.2,6.6,7c0,4.4-3.7,7.2-9.1,7.2c-2.3,0-4.6-0.6-6.6-1.7c-0.5-2.1-0.9-4.1-1.2-6.2
			l1.5-0.4c0.9,2.8,3.4,6.7,6.8,6.7c1.8,0.2,3.5-1.1,3.7-3c0-0.1,0-0.2,0-0.3c0-1.9-1.3-3-3.6-4l-1.5-0.6c-2.7-1.1-6-3-6-6.8
			c0-4.2,3.1-7,8.7-7c1.8,0,3.6,0.4,5.3,1.1c0.2,1.3,0.5,3,0.8,5.6L557.8,50.6z"/>
		<path id="Shape-16" class="st0" d="M563.2,66.4v-1.5c2.9-0.2,3.3-0.4,3.3-3.7V49.3c0-3.3-0.3-3.4-3.3-3.7v-1.5H575v1.5
			c-3,0.2-3.3,0.4-3.3,3.7v11.8c0,3.3,0.3,3.5,3.3,3.7v1.5L563.2,66.4z"/>
		<path id="Shape-17" class="st0" d="M598.1,50.4c-0.2-1.3-0.7-2.6-1.5-3.7c-0.6-0.7-1.7-0.9-3.4-0.9h-1.9v15.2
			c0,3.4,0.3,3.6,3.7,3.8v1.5h-12.5v-1.5c3.2-0.2,3.5-0.4,3.5-3.8V45.9h-1.3c-2.5,0-3.4,0.3-3.9,1.1c-0.7,1-1.2,2.2-1.4,3.4H578
			c0.1-2.9,0.4-5.4,0.4-7.1h1.1c0.6,0.8,1,0.8,2.1,0.8h14.7c0.7,0.1,1.5-0.2,1.9-0.8h1.1c0,1.7,0.2,5.1,0.5,7.1L598.1,50.4z"/>
		<path id="Shape-18" class="st0" d="M625.6,45.6c-1.9-0.1-3.7,1-4.5,2.7c-1,1.5-2.2,3.5-4,6.9c-0.4,0.6-0.6,1.3-0.6,2.1v3.9
			c0,3.1,0.3,3.4,3.7,3.7v1.5h-12.6v-1.5c3.4-0.3,3.7-0.5,3.7-3.6v-3.6c0-0.9-0.2-1.7-0.7-2.4c-1.2-2.2-2.5-4.3-4.1-7
			c-1.3-2.2-1.9-2.5-4-2.7v-1.5h11v1.5l-1.3,0.2c-1,0.2-1,0.7-0.5,1.7c1.3,2.4,2.7,4.8,3.9,7c1.2-2.2,2.4-4.4,3.4-6.7
			c0.6-1.5,0.5-1.8-0.7-2l-1.3-0.2v-1.6h8.7L625.6,45.6z"/>
		<path id="Shape-19" class="st0" d="M198.6,92.7c-2.1,0.2-2.5,0.5-4.2,3.4c-2.1,3.3-6.5,11.2-10.2,17.9h-1.4
			c-1-6.3-2.6-14.4-3.3-18.1c-0.5-2.6-0.9-2.8-2.9-3.1l0.3-1h8.6l-0.3,1l-0.8,0.1c-1.3,0.2-1.4,0.4-1.3,1.7c0.3,2.2,1.5,8.6,2.4,14
			l0,0c2.5-4.4,5.7-10.1,7.2-13.2c0.9-1.9,0.7-2.3-0.9-2.5l-0.8-0.1l0.3-1h7.5L198.6,92.7z"/>
		<path id="Shape-20" class="st0" d="M209.5,110.2c-1.3,1.9-3.3,3.3-5.5,3.8c-0.8,0-1.4-0.5-0.9-3.4l0.5-2.3l0,0
			c-1.1,1.5-2.3,2.8-3.7,4c-0.9,0.9-2.2,1.5-3.5,1.7c-1.1,0-2.2-1.3-2.2-4c0-3.3,1.4-6.5,3.8-8.8c1.9-1.7,4.4-2.7,6.9-2.8
			c0.7,0,1.4,0.1,2.1,0.2c0.6,0.1,1.1,0.2,1.7,0.2l0.2,0.1c-0.7,2.6-1.6,6.6-2.3,10.7c-0.2,1.1-0.1,1.4,0,1.4c0.9-0.4,1.7-1,2.3-1.7
			L209.5,110.2z M204,105.6c0.4-1.6,1-4.3,1.2-5.3c-0.6-0.3-1.3-0.5-2.1-0.5c-0.6,0-1.3,0.2-1.8,0.6c-2.2,1.6-3.4,5.7-3.4,8.8
			c0,1.4,0.3,2,0.8,2C200,111.2,203.3,107.3,204,105.6L204,105.6z"/>
		<path id="Shape-21" class="st0" d="M226.6,99.1c-0.7,0.9-1.6,1.5-2.7,1.8l-0.7,0.1c0.2,0.5,0.3,1.1,0.2,1.7c0,1.9-0.9,3.7-2.4,4.9
			c-1.4,1-3,1.7-4.7,2.1c-0.3,0.2-0.5,0.5-0.5,0.8c0,0.4,0.8,0.9,2.4,1.8c3.5,1.7,4.8,3,4.8,4.6c0,2.9-5,5.2-8.6,5.2
			s-6.2-1.7-6.2-3.8c0-1.6,2.2-3,5.5-4.6c-0.7-0.3-1.1-1-1.2-1.7c0-0.7,0.7-1.3,2.4-2.3c-2-0.2-3.5-2-3.4-4c0-2.2,1.1-4.3,2.9-5.5
			c1.4-1,3-1.6,4.7-1.7c1.1-0.1,2.2,0.3,3.1,0.9c1.4,0.1,2.8-0.2,4-0.8L226.6,99.1z M219.7,118.1c0-0.8-0.7-1.5-2.2-2.4
			c-0.9-0.6-1.9-1.1-2.9-1.5c-1.6,0.8-2.8,2.1-2.8,3.4c0,1.7,2,2.9,4.1,2.9S219.7,119.4,219.7,118.1L219.7,118.1z M220.1,102.4
			c0-1.7-0.5-2.8-1.7-2.8s-1.7,0.9-2.3,1.9c-0.7,1.3-1,2.7-1,4.2c0,1.6,0.6,2.6,1.7,2.6C218.3,108.2,220.1,105.9,220.1,102.4z"/>
		<path id="Shape-22" class="st0" d="M237.3,109.9c-3,3.2-5.6,4.1-7.7,4.1c-1.8,0-4-1-4-5.1c0-3.3,1.5-6.5,4-8.6
			c1.5-1.2,3.3-1.9,5.2-2c1.6-0.2,3.1,0.9,3.3,2.5c0,0.1,0,0.2,0,0.4c0,3.4-5.4,5.1-8.8,6v1c0,1.7,0.6,3.4,2.5,3.4
			c1.9-0.3,3.6-1.1,4.9-2.5L237.3,109.9z M232.3,100.1c-0.8,0.5-2.3,2.3-2.8,5.8c4.1-1.2,5.4-2.6,5.4-4.4c0-1.3-0.8-1.8-1.4-1.8
			C233,99.8,232.6,99.9,232.3,100.1L232.3,100.1z"/>
		<path id="Shape-23" class="st0" d="M246.2,110.4c-1.4,1.8-3.4,3-5.6,3.6c-0.8,0-1.4-0.8-0.7-4.3c1.1-5.3,2.2-10.5,3.2-15.7
			c0.3-1.7,0.2-1.9-1.2-2h-0.9l0.2-1c1.9-0.3,3.9-0.7,5.7-1.2c0.4,0,0.4,0.3,0.3,1.2c-1.3,6.3-2.6,12.6-3.9,18.9
			c-0.2,0.9-0.1,1.3,0.1,1.3c0.9-0.3,1.7-0.9,2.4-1.6L246.2,110.4z"/>
		<path id="Shape-24" class="st0" d="M248.2,108.5c-0.1-3.7,1.8-7.2,5.1-9.1c1.3-0.7,2.7-1.1,4.2-1.2c3.1,0,4.8,2.1,4.8,5.3
			c0,3.1-1.3,6.1-3.6,8.2c-1.6,1.4-3.5,2.1-5.6,2.2C249.3,114,248.2,111.2,248.2,108.5z M255.3,112.3c1.5-0.6,3.1-4.2,3.1-8.8
			c0-2.6-1-3.8-2.3-3.8c-0.3,0-0.7,0.1-1,0.2c-1,0.5-3.2,3.4-3.2,8.7c0,2.6,1,3.9,2.3,3.9C254.6,112.5,255,112.5,255.3,112.3
			L255.3,112.3z"/>
		<path id="Shape-25" class="st0" d="M263.3,111.3c0.1-0.7,0.5-1.3,1.1-1.7c0.5-0.3,0.8-0.3,1,0c0.8,1.3,2.2,2.1,3.6,2.4
			c0.9,0.1,1.7-0.6,1.8-1.5c0-0.8-0.4-1.4-2.1-2.6s-3.2-2.4-3.2-4.3c0-1.4,0.8-2.8,2-3.6c1.1-1,2.5-1.6,4-1.7c1.7,0,2.9,1,2.9,2.1
			c0,0.7-0.4,1.3-1,1.7c-0.4,0.3-0.7,0.2-0.9-0.1c-0.6-1-1.7-1.7-2.9-1.8c-0.8-0.1-1.4,0.5-1.5,1.3c0,0.1,0,0.1,0,0.2
			c0,1,1,1.9,2.3,2.8c2,1.3,3.1,2.5,3.1,4.2c0,2.9-3.7,5.4-6.6,5.4C265.3,114,263.3,112.8,263.3,111.3z"/>
		<path id="Shape-26" class="st0" d="M303.1,107.8c-0.8,1.9-1.7,3.7-2.7,5.4c-1.9,0.5-3.9,0.8-5.9,0.8c-5.9,0-10.1-3.4-10.1-9.7
			c0-8.2,6.5-13.3,14.4-13.3c2,0,4,0.3,5.9,1c0,1.7-0.2,3.7-0.3,5.5l-1.1,0.1c-0.5-4.1-2.2-5.3-5.1-5.3c-5.2,0-9.3,5.4-9.3,11.8
			c0,5.1,2.3,8.4,6.1,8.4c2.9,0,4.9-2,7.2-5.4L303.1,107.8z"/>
		<path id="Shape-27" class="st0" d="M305.5,108.5c-0.1-3.7,1.8-7.2,5.1-9.1c1.3-0.7,2.7-1.1,4.2-1.2c3.1,0,4.8,2.1,4.8,5.3
			c0.1,3.1-1.2,6.1-3.5,8.2c-1.6,1.3-3.5,2.1-5.6,2.2C306.6,114,305.5,111.2,305.5,108.5z M312.6,112.3c1.5-0.6,3.1-4.2,3.1-8.8
			c0-2.6-1-3.8-2.3-3.8c-0.3,0-0.7,0.1-1,0.2c-1,0.5-3.2,3.4-3.2,8.7c0,2.6,1,3.9,2.3,3.9C311.9,112.5,312.3,112.5,312.6,112.3
			L312.6,112.3z"/>
		<path id="Shape-28" class="st0" d="M328.4,110.4c-1.4,1.8-3.4,3.1-5.6,3.6c-0.8,0-1.5-0.8-0.7-4.3c1.1-5.3,2.2-10.5,3.2-15.7
			c0.3-1.7,0.2-1.9-1.2-2h-1l0.2-1c1.9-0.3,3.9-0.7,5.7-1.2c0.4,0,0.4,0.3,0.3,1.2c-1.3,6.3-2.6,12.6-3.9,18.9
			c-0.2,0.9-0.1,1.3,0.1,1.3c0.9-0.3,1.7-0.9,2.4-1.6L328.4,110.4z"/>
		<path id="Shape-29" class="st0" d="M337.2,110.4c-1.4,1.8-3.4,3-5.6,3.6c-0.8,0-1.5-0.8-0.7-4.3c1.1-5.3,2.2-10.5,3.2-15.7
			c0.3-1.7,0.2-1.9-1.2-2h-0.9l0.2-1c1.9-0.3,3.9-0.7,5.7-1.2c0.4,0,0.4,0.3,0.3,1.2c-1.3,6.3-2.6,12.6-3.9,18.9
			c-0.2,0.9-0.1,1.3,0.1,1.3c0.9-0.3,1.7-0.9,2.4-1.6L337.2,110.4z"/>
		<path id="Shape-30" class="st0" d="M350.8,109.9c-3,3.2-5.6,4.1-7.7,4.1c-1.8,0-4-1-4-5.1c0-3.3,1.5-6.5,4-8.6
			c1.5-1.2,3.3-1.9,5.2-2.1c1.6-0.2,3.1,0.8,3.3,2.4c0,0.1,0,0.3,0,0.4c0,3.4-5.4,5.1-8.8,6v1c0,1.7,0.6,3.4,2.5,3.4
			c1.9-0.3,3.6-1.2,4.9-2.5L350.8,109.9z M345.7,100.1c-0.8,0.5-2.3,2.3-2.8,5.8c4-1.2,5.4-2.6,5.4-4.4c0-1.3-0.8-1.8-1.4-1.8
			C346.5,99.8,346.1,99.9,345.7,100.1L345.7,100.1z"/>
		<path id="Shape-31" class="st0" d="M368.5,99.1c-0.7,0.9-1.6,1.5-2.7,1.8l-0.7,0.1c0.2,0.5,0.3,1.1,0.2,1.7c0,1.9-0.9,3.7-2.4,4.9
			c-1.4,1-3,1.7-4.8,2.1c-0.3,0.2-0.5,0.5-0.5,0.8c0,0.4,0.7,0.9,2.4,1.8c3.5,1.7,4.8,3,4.8,4.6c0,2.9-5,5.2-8.5,5.2
			s-6.2-1.7-6.2-3.8c0-1.6,2.2-3,5.5-4.6c-0.7-0.3-1.1-1-1.2-1.7c0-0.7,0.7-1.3,2.4-2.3c-2-0.2-3.5-2-3.3-4c0-2.2,1.1-4.3,2.9-5.5
			c1.4-1,3-1.6,4.7-1.7c1.1-0.1,2.2,0.3,3.1,0.9c1.4,0.1,2.8-0.2,4-0.8L368.5,99.1z M361.6,118.1c0-0.8-0.7-1.5-2.2-2.4
			c-0.9-0.6-1.9-1.1-2.9-1.5c-1.6,0.8-2.8,2.1-2.8,3.4c0,1.7,2,2.9,4.2,2.9S361.6,119.4,361.6,118.1L361.6,118.1z M362,102.4
			c0-1.7-0.5-2.8-1.7-2.8s-1.7,0.9-2.3,1.9c-0.6,1.3-1,2.7-1,4.2c0,1.6,0.6,2.6,1.7,2.6C360.2,108.2,362,105.9,362,102.4L362,102.4z
			"/>
		<path id="Shape-32" class="st0" d="M379.2,109.9c-3,3.2-5.6,4.1-7.7,4.1c-1.8,0-4-1-4-5.1c0-3.3,1.5-6.5,4-8.6
			c1.5-1.2,3.3-1.9,5.2-2c1.6-0.2,3.1,0.9,3.3,2.5c0,0.1,0,0.2,0,0.4c0,3.4-5.4,5.1-8.8,6v1c0,1.7,0.6,3.4,2.5,3.4
			c1.9-0.3,3.6-1.1,4.9-2.5L379.2,109.9z M374.2,100.1c-0.8,0.5-2.3,2.3-2.8,5.8c4-1.2,5.4-2.6,5.4-4.4c0-1.3-0.8-1.8-1.4-1.8
			C374.9,99.8,374.6,99.9,374.2,100.1L374.2,100.1z"/>
		<path id="Shape-33" class="st0" d="M389,108.5c-0.1-3.7,1.8-7.2,5.1-9.1c1.3-0.7,2.7-1.1,4.1-1.2c3.1,0,4.8,2.1,4.8,5.3
			c0,3.1-1.3,6.1-3.6,8.2c-1.6,1.3-3.5,2.1-5.6,2.2C390.1,114,389,111.2,389,108.5z M396.1,112.3c1.5-0.6,3.1-4.2,3.1-8.8
			c0-2.6-1-3.8-2.3-3.8c-0.3,0-0.7,0.1-1,0.2c-1,0.5-3.2,3.4-3.2,8.7c0,2.6,1,3.9,2.3,3.9C395.5,112.5,395.8,112.5,396.1,112.3
			L396.1,112.3z"/>
		<path id="Shape-34" class="st0" d="M408.2,98.8c0.4-2.4,1.4-4.6,3-6.4c1.4-1.5,3.2-2.5,5.2-2.7c1.5,0,2.3,0.9,2.3,1.7
			c-0.1,0.7-0.5,1.3-1.1,1.7c-0.2,0.2-0.6,0.3-0.8,0c0,0,0,0,0,0c-0.8-1-1.6-1.6-2.3-1.6s-1.7,0.8-2.7,7.4h3.8l-0.7,1.2l-3.4,0.3
			c-0.6,3.4-1,6-1.9,9.8c-1.2,5.6-2.7,8-4.9,9.9c-1,1-2.3,1.7-3.8,1.8c-1,0-2.2-0.7-2.2-1.6c0.1-0.7,0.5-1.3,1.1-1.7
			c0.3-0.2,0.5-0.2,0.7,0c0.7,0.6,1.6,1,2.5,1.1c0.5,0,1-0.3,1.2-0.8c0.3-0.5,0.8-1.7,1.7-7.5c0.8-4.7,1.2-7.7,1.8-11H405l-0.1-0.4
			L406,99L408.2,98.8z"/>
		<path id="Shape-35" class="st0" d="M433.2,91.6c4.4,0,7.6,1.6,7.6,5.8c0,4.6-3.9,7.1-8.2,7.4c-0.4,0-0.7,0-1.1,0l-2.3-0.6l-1,5.1
			c-0.5,2.8-0.3,3,2.7,3.2l-0.2,1h-9.8l0.2-1c2.5-0.2,2.7-0.5,3.4-3.2l2.6-13.3c0.5-2.8,0.3-3-2.2-3.3l0.2-1.1L433.2,91.6z
			 M429.4,102.9c2.9,1,6.1-0.6,7.1-3.5c0.3-0.8,0.3-1.6,0.3-2.4c0-2.8-1.5-4.2-3.8-4.2c-0.5,0-0.9,0.1-1.4,0.3
			c-0.3,0.2-0.5,0.6-0.8,1.7L429.4,102.9z"/>
		<path id="Shape-36" class="st0" d="M457,110.6c-1.4,1.7-3.3,2.9-5.5,3.4c-1,0-1.4-0.9-0.8-3.6l1.7-7.4c0.4-1.4,0.2-2-0.3-2
			c-1.2,0-4.3,3-6,5.7c-0.4,1.7-1,4.9-1.3,6.6c-1.1,0.2-2.3,0.4-3.4,0.7l-0.2-0.3c1.4-6.4,2.7-12.9,4.1-19.9c0.3-1.7,0-1.7-1.4-1.8
			h-0.8l0.2-1c1.9-0.2,3.8-0.6,5.7-1.2c0.4,0,0.5,0.3,0.3,1.2l-2.8,13.3l0,0c1.5-2,3.4-3.7,5.5-5.1c0.8-0.5,1.7-0.8,2.6-0.8
			c0.9,0,2.1,0.5,1.1,4.8l-1.5,6.6c-0.2,1-0.1,1.3,0.1,1.3c0.8-0.3,1.5-0.8,2.1-1.3L457,110.6z"/>
		<path id="Shape-37" class="st0" d="M466,110.7c1.7-2.5,4-6,4-8.4c0-0.6-0.2-1.2-0.4-1.7c-0.1-0.3-0.1-0.7,0.1-1c0.3-0.6,1-1,1.7-1
			c0.9,0,1.6,0.7,1.7,2.1c-0.1,1.3-0.5,2.6-1.3,3.7c-1.5,2.6-3.8,6-5.7,8.7c-1.9,2.8-4,5.6-6.2,8.2l-4.1,1l-0.3-0.8
			c2.9-1.8,5.5-4.1,7.6-6.8c-0.1-3.8-0.5-7.6-1.1-11.3c-0.2-1.3-0.5-1.7-0.7-1.7s-0.9,0.6-1.9,1.8l-0.7-0.9c1.3-2.1,3.2-4,4.6-4
			c1.1,0,1.7,1.2,2.1,4.3c0.3,2.7,0.5,5.1,0.7,8L466,110.7z"/>
		<path id="Shape-38" class="st0" d="M472.9,111.3c0.1-0.7,0.5-1.3,1.1-1.7c0.5-0.3,0.8-0.3,1,0c0.8,1.3,2.2,2.1,3.6,2.4
			c0.9,0.1,1.7-0.6,1.8-1.5c0-0.8-0.4-1.4-2.1-2.6s-3.2-2.4-3.2-4.3c0-1.4,0.8-2.8,2-3.6c1.1-1,2.5-1.6,4-1.7c1.7,0,2.9,1,2.9,2.1
			c0,0.7-0.4,1.3-1,1.7c-0.4,0.3-0.7,0.2-0.9-0.1c-0.6-1-1.7-1.7-2.9-1.8c-0.8-0.1-1.4,0.5-1.5,1.3c0,0.1,0,0.1,0,0.2
			c0,1,1,1.9,2.3,2.8c2,1.3,3.1,2.5,3.1,4.2c0,2.9-3.7,5.4-6.5,5.4C474.9,114,472.9,112.8,472.9,111.3z"/>
		<path id="Shape-39" class="st0" d="M492.8,110.4c-1.4,1.8-3.4,3-5.6,3.6c-0.9,0-1.5-0.7-0.8-3.5l1.8-8c0.2-0.8,0.2-1.2,0-1.2
			c-0.8,0.3-1.5,0.7-2.1,1.3l-0.4-0.9c1.6-1.7,3.6-2.8,5.8-3.4c0.9,0,1,1.2,0.5,3.1l-2.1,8.3c-0.2,0.9-0.1,1.2,0.1,1.2
			c0.8-0.3,1.6-0.8,2.2-1.4L492.8,110.4z M493.4,93.5c0,1.3-1,2.3-2.3,2.4c-0.5,0-0.9-0.2-1.3-0.6c-0.3-0.4-0.5-0.8-0.4-1.3
			c0-1.2,0.9-2.3,2.2-2.3c0.5,0,1,0.2,1.3,0.5C493.3,92.5,493.5,93,493.4,93.5L493.4,93.5z"/>
		<path id="Shape-40" class="st0" d="M506,110.2c-1.7,2.2-4.2,3.6-7,3.9c-2.5,0-4-1.7-4-5.1c0-3.1,1.3-6.1,3.6-8.2
			c1.6-1.4,3.5-2.3,5.6-2.5c1.6,0,2.9,0.8,2.9,1.9c0,0.8-0.6,1.6-1.3,1.9c-0.2,0.2-0.6,0.2-0.8,0c0,0-0.1-0.1-0.1-0.1
			c-0.9-1.3-1.7-1.9-2.6-1.9s-1.5,0.7-2.1,1.8c-0.9,1.9-1.4,4.1-1.4,6.2c0,2.4,0.9,3.5,2.2,3.5c1.7-0.3,3.2-1.1,4.3-2.3L506,110.2z"
			/>
		<path id="Shape-41" class="st0" d="M515.6,110.4c-1.4,1.8-3.4,3-5.6,3.6c-0.9,0-1.5-0.7-0.8-3.5l1.9-8c0.2-0.8,0.2-1.2,0-1.2
			c-0.8,0.3-1.5,0.7-2.1,1.3l-0.4-0.9c1.6-1.7,3.6-2.8,5.8-3.4c0.9,0,1,1.2,0.5,3.1l-2.1,8.3c-0.2,0.9-0.1,1.2,0.1,1.2
			c0.8-0.3,1.6-0.8,2.2-1.4L515.6,110.4z M516.2,93.5c0,1.3-1,2.3-2.3,2.4c-0.5,0-0.9-0.2-1.2-0.6c-0.3-0.4-0.5-0.8-0.4-1.3
			c0-1.3,1-2.3,2.3-2.3c0.9,0,1.7,0.7,1.7,1.6C516.2,93.4,516.2,93.4,516.2,93.5L516.2,93.5z"/>
		<path id="Shape-42" class="st0" d="M533.1,110.2c-1.3,1.9-3.3,3.3-5.6,3.9c-0.7,0-1.4-0.5-0.8-3.4l0.5-2.3l0,0
			c-1.1,1.5-2.3,2.8-3.8,4c-0.9,0.9-2.2,1.5-3.5,1.7c-1.2,0-2.2-1.3-2.2-4c0-3.3,1.4-6.5,3.8-8.8c1.9-1.7,4.4-2.7,6.9-2.8
			c0.7,0,1.4,0.1,2.1,0.2c0.5,0.1,1.1,0.2,1.7,0.2l0.2,0.1c-0.7,2.6-1.5,6.6-2.3,10.7c-0.2,1.1-0.1,1.4,0,1.4c0.9-0.4,1.7-1,2.3-1.7
			L533.1,110.2z M527.6,105.6c0.4-1.6,1-4.3,1.2-5.3c-0.6-0.3-1.3-0.5-2.1-0.5c-0.6,0-1.3,0.2-1.8,0.6c-2.2,1.6-3.4,5.7-3.4,8.8
			c0,1.4,0.3,2,0.8,2C523.5,111.2,526.8,107.3,527.6,105.6L527.6,105.6z"/>
		<path id="Shape-43" class="st0" d="M550.5,110.5c-2.4,2.5-4.4,3.5-5.4,3.5s-1.5-0.8-0.8-3.6c0.6-2.4,1.2-4.8,1.7-7.2
			c0.4-1.8,0.3-2.2-0.2-2.2c-1.2,0-4.6,3.8-6,6.2c-0.5,1.7-1,4-1.4,6.2c-1.1,0.1-2.3,0.4-3.4,0.7l-0.2-0.3c0.8-3.5,1.7-7.3,2.6-11.2
			c0.2-1,0.2-1.3,0-1.3c-0.8,0.3-1.6,0.8-2.2,1.4l-0.5-0.9c1.4-1.7,3.3-2.9,5.4-3.4c0.9,0,1.2,1,0.5,4.1l-0.5,2.1l0,0
			c1.5-2.1,3.4-3.8,5.5-5.3c0.8-0.5,1.7-0.9,2.6-0.9c1,0,2.1,0.6,1,5.1c-0.5,2.1-1,4.2-1.5,6.4c-0.2,0.8-0.2,1.2,0.1,1.2
			c0.8-0.3,1.5-0.8,2.1-1.4L550.5,110.5z"/>
		<path id="Shape-44" class="st0" d="M551.9,111.3c0-0.7,0.5-1.3,1.1-1.7c0.5-0.3,0.8-0.3,1,0c0.8,1.3,2.2,2.1,3.7,2.4
			c0.9,0.1,1.7-0.6,1.8-1.5c0-0.8-0.4-1.4-2.1-2.6s-3.3-2.3-3.3-4.3c0-1.4,0.8-2.8,2-3.6c1.1-1,2.5-1.6,4-1.7c1.7,0,2.9,1,2.9,2.1
			c0,0.7-0.4,1.3-1,1.7c-0.4,0.3-0.7,0.2-0.9-0.1c-0.6-1-1.7-1.7-2.9-1.8c-0.4,0-0.8,0.1-1.1,0.4c-0.3,0.3-0.4,0.7-0.4,1.1
			c0,1,1,1.9,2.3,2.8c2,1.3,3.1,2.5,3.1,4.2c0,2.9-3.7,5.4-6.5,5.4C553.9,114,551.9,112.8,551.9,111.3z"/>
		<path id="Shape-45" class="st0" d="M587.4,110.2c-1.3,1.9-3.3,3.3-5.6,3.9c-0.8,0-1.4-0.5-0.8-3.4l0.5-2.3l0,0
			c-1.1,1.5-2.3,2.8-3.7,4c-0.9,0.9-2.2,1.5-3.5,1.7c-1.2,0-2.2-1.3-2.2-4c0-3.3,1.4-6.5,3.8-8.8c1.9-1.7,4.4-2.7,6.9-2.8
			c0.7,0,1.4,0.1,2.1,0.2c0.6,0.1,1.1,0.2,1.7,0.2l0.2,0.1c-0.7,2.6-1.6,6.6-2.3,10.7c-0.2,1.1-0.1,1.4,0,1.4c0.9-0.4,1.7-1,2.3-1.7
			L587.4,110.2z M581.9,105.6c0.4-1.6,1-4.3,1.2-5.3c-0.6-0.3-1.3-0.5-2.1-0.5c-0.6,0-1.3,0.2-1.8,0.6c-2.2,1.6-3.4,5.7-3.4,8.8
			c0,1.4,0.3,2,0.8,2C577.8,111.2,581.1,107.3,581.9,105.6z"/>
		<path id="Shape-46" class="st0" d="M604.8,110.5c-2.4,2.5-4.4,3.5-5.4,3.5s-1.5-0.8-0.8-3.6c0.6-2.4,1.2-4.8,1.7-7.2
			c0.4-1.8,0.3-2.2-0.2-2.2c-1.2,0-4.6,3.8-6,6.2c-0.5,1.7-1,4-1.4,6.2c-1.1,0.1-2.3,0.4-3.4,0.7l-0.2-0.3c0.8-3.5,1.7-7.3,2.6-11.2
			c0.2-1,0.2-1.3,0-1.3c-0.8,0.3-1.6,0.8-2.2,1.4l-0.5-0.9c1.4-1.7,3.3-2.9,5.4-3.4c0.9,0,1.2,1,0.5,4.1l-0.5,2.1l0,0
			c1.5-2,3.3-3.8,5.4-5.3c0.8-0.5,1.7-0.9,2.6-0.9c1,0,2.1,0.6,1,5.1c-0.5,2.1-1,4.2-1.5,6.4c-0.2,0.8-0.2,1.2,0.1,1.2
			c0.8-0.3,1.5-0.8,2.1-1.4L604.8,110.5z"/>
		<path id="Shape-47" class="st0" d="M622.7,110.3c-1.3,1.9-3.3,3.2-5.5,3.7c-0.8,0-1.4-0.5-0.8-3.2l0.5-2.4l0,0
			c-1.2,1.6-2.6,3-4.1,4.2c-0.9,0.8-2,1.4-3.3,1.5c-1.4,0-2.5-1.4-2.5-4.2c-0.2-5.9,4.2-10.9,10-11.5c0.6,0,1.3,0.1,1.9,0.3l1-5
			c0.3-1.5,0.1-1.7-1.4-1.7h-0.8l0.2-1c2-0.3,3.9-0.7,5.8-1.2c0.4,0,0.4,0.3,0.2,1.1c-1.5,6.6-2.8,12.7-3.9,18.9
			c-0.2,0.9-0.2,1.3,0.1,1.3c0.9-0.3,1.6-0.9,2.2-1.6L622.7,110.3z M617.2,105.6l1-4.9c-0.7-0.6-1.6-0.9-2.5-0.9
			c-0.6,0-1.2,0.2-1.7,0.5c-2.1,1.6-3.4,6-3.4,8.7c0,1.5,0.4,2.2,1,2.2C613.2,111.2,616.2,107.6,617.2,105.6z"/>
		<path id="Shape-48" class="st0" d="M633,106.6c0.3,2.4,1.8,6.2,5.4,6.2c2,0.1,3.7-1.5,3.8-3.5c0-0.2,0-0.3,0-0.5
			c-0.2-1.9-1.2-3.5-2.8-4.5l-1-0.8c-1.9-1.5-3.9-3.4-3.9-6.2c0-3.8,3-6.3,7.2-6.3c1.2,0,2.5,0.2,3.6,0.6c0.6,0.2,1.1,0.4,1.4,0.5
			c-0.1,1.3-0.1,3.1-0.2,5.1l-1.1,0.1c-0.3-2.3-1.2-5.1-4-5.1c-0.9,0-1.8,0.4-2.5,1.1c-0.6,0.7-1,1.6-1,2.6c0,1.8,1.1,2.9,2.9,4.2
			l1,0.7c2.3,1.7,4.2,3.5,4.2,6.4c0,4.2-3.6,6.8-7.9,6.8c-2.2,0-4.3-0.7-6-2.1v-5.2L633,106.6z"/>
		<path id="Shape-49" class="st0" d="M664.2,110.3c-2.2,2.5-4.4,3.7-5.5,3.7s-1.4-1-0.8-3.5c0.2-0.8,0.3-1.6,0.5-2.4l0,0
			c-1.4,2-3.2,3.7-5.2,5.1c-0.7,0.5-1.6,0.8-2.5,0.8c-1,0-2.2-0.6-1.2-4.7c0.5-2.2,1-4.5,1.6-6.8c0.2-1,0.2-1.4,0-1.4
			c-0.8,0.4-1.5,0.9-2.2,1.5l-0.4-1c1.5-1.6,3.4-2.8,5.5-3.3c0.9,0,1.2,0.8,0.6,3.3s-1.1,5.1-1.7,7.4c-0.4,1.6-0.2,2.2,0.3,2.2
			c1.7,0,4.8-4.1,5.8-5.8c0.5-2,0.9-4.1,1.4-6.2l3.2-0.9h0.4c-0.9,3.5-1.7,7.1-2.5,11.2c-0.2,1.1-0.2,1.4,0,1.4
			c0.9-0.3,1.6-0.9,2.3-1.6L664.2,110.3z"/>
		<path id="Shape-50" class="st0" d="M666,101.7c1.9-2,4.1-3.4,5.2-3.4s1.2,1.2,0.6,3.9l-0.3,1.6h0.1c1.7-3.1,3.4-5.5,4.9-5.5
			c0.6,0,1.2,0.3,1.5,0.9c0.3,0.6,0.3,1.3-0.1,1.8c-0.3,0.5-0.6,0.9-1.1,1.2c-0.2,0.2-0.6,0.2-0.8,0c-0.3-0.4-0.8-0.6-1.3-0.6
			c-0.4,0-0.8,0.2-1.5,1.2c-0.9,1.2-1.6,2.5-2.1,3.9c-0.4,2-0.9,4.5-1.3,6.5c-1.1,0.1-2.3,0.3-3.4,0.7l-0.2-0.3
			c0.8-3.6,1.7-7.3,2.3-10.9c0.2-1.1,0.2-1.6,0-1.6c-0.8,0.3-1.6,0.8-2.2,1.4L666,101.7z"/>
		<path id="Shape-51" class="st0" d="M694.3,99.1c-0.7,0.9-1.6,1.5-2.7,1.8l-0.7,0.1c0.2,0.5,0.3,1.1,0.2,1.7c0,1.9-0.9,3.7-2.4,4.9
			c-1.4,1-3.1,1.8-4.8,2.1c-0.3,0.2-0.5,0.5-0.5,0.8c0,0.4,0.8,1,2.4,1.8c3.5,1.7,4.8,3,4.8,4.6c0,2.9-5,5.2-8.5,5.2
			s-6.2-1.7-6.2-3.8c0-1.6,2.2-3,5.5-4.6c-0.7-0.3-1.1-1-1.2-1.7c0-0.7,0.7-1.3,2.4-2.3c-2-0.3-3.4-2-3.2-4c0-2.2,1.1-4.3,2.9-5.5
			c1.4-1,3-1.6,4.7-1.7c1.1-0.1,2.2,0.3,3.1,0.9c1.4,0.1,2.8-0.2,4-0.8L694.3,99.1z M687.4,118.1c0-0.8-0.7-1.5-2.2-2.4
			c-0.9-0.6-1.9-1.1-2.9-1.5c-1.6,0.8-2.8,2.1-2.8,3.4c0,1.7,2,2.9,4.2,2.9S687.4,119.4,687.4,118.1L687.4,118.1z M687.8,102.4
			c0-1.7-0.5-2.8-1.7-2.8s-1.7,0.9-2.3,1.9c-0.7,1.3-1,2.7-1,4.2c0,1.6,0.6,2.6,1.7,2.6C686.1,108.2,687.9,105.9,687.8,102.4
			L687.8,102.4z"/>
		<path id="Shape-52" class="st0" d="M705.1,109.9c-3,3.2-5.6,4.1-7.7,4.1c-1.8,0-4-1-4-5.1c0-3.3,1.5-6.5,4-8.6
			c1.5-1.2,3.3-1.9,5.2-2.1c1.6-0.2,3.1,0.8,3.3,2.4c0,0.1,0,0.3,0,0.4c0,3.4-5.4,5.1-8.8,6v1c0,1.7,0.6,3.4,2.5,3.4
			c1.8-0.3,3.5-1.2,4.8-2.5L705.1,109.9z M700,100.2c-0.8,0.5-2.3,2.3-2.8,5.8c4-1.2,5.4-2.6,5.4-4.4c0-1.3-0.8-1.8-1.4-1.8
			C700.8,99.8,700.4,99.9,700,100.2L700,100.2z"/>
		<path id="Shape-53" class="st0" d="M707.3,108.5c-0.1-3.7,1.8-7.2,5.1-9.1c1.3-0.7,2.7-1.1,4.2-1.2c3.2,0,4.8,2.1,4.8,5.3
			c0,3.1-1.3,6.1-3.6,8.2c-1.6,1.3-3.5,2.1-5.6,2.2C708.4,114,707.3,111.2,707.3,108.5z M714.4,112.3c1.5-0.6,3.1-4.2,3.1-8.8
			c0-2.6-1-3.8-2.3-3.8c-0.3,0-0.7,0.1-1,0.2c-1,0.5-3.2,3.4-3.2,8.7c0,2.6,1,3.9,2.3,3.9C713.8,112.5,714.1,112.5,714.4,112.3
			L714.4,112.3z"/>
		<path id="Shape-54" class="st0" d="M739.4,110.5c-2.4,2.5-4.4,3.5-5.4,3.5s-1.5-0.8-0.8-3.6c0.6-2.4,1.2-4.8,1.7-7.2
			c0.4-1.8,0.3-2.2-0.2-2.2c-1.2,0-4.6,3.8-6,6.2c-0.5,1.7-1,4-1.4,6.2c-1.1,0.1-2.3,0.4-3.4,0.7l-0.2-0.3c0.8-3.5,1.7-7.3,2.6-11.2
			c0.2-1,0.2-1.3,0-1.3c-0.8,0.3-1.6,0.8-2.2,1.4l-0.5-0.9c1.4-1.7,3.3-2.9,5.4-3.4c0.9,0,1.2,1,0.5,4.1l-0.5,2.1l0,0
			c1.5-2,3.3-3.8,5.4-5.3c0.8-0.5,1.7-0.9,2.6-0.9c1,0,2.1,0.6,1,5.1c-0.5,2.1-1,4.2-1.5,6.4c-0.2,0.8-0.2,1.2,0.1,1.2
			c0.8-0.3,1.5-0.8,2.1-1.4L739.4,110.5z"/>
		<path id="Shape-55" class="st0" d="M740.8,111.3c0-0.7,0.5-1.3,1.1-1.7c0.5-0.3,0.8-0.3,1,0c0.8,1.3,2.2,2.1,3.7,2.4
			c0.9,0.1,1.7-0.6,1.8-1.5c0-0.8-0.4-1.4-2.1-2.6s-3.2-2.4-3.2-4.3c0-1.4,0.8-2.8,2-3.6c1.1-1,2.5-1.6,4-1.7c1.7,0,2.9,1,2.9,2.1
			c0,0.7-0.4,1.3-1,1.7c-0.4,0.3-0.7,0.2-0.9-0.1c-0.6-1-1.7-1.7-2.9-1.8c-0.4,0-0.8,0.1-1.1,0.4c-0.3,0.3-0.4,0.7-0.4,1.1
			c0,1,1,1.9,2.3,2.8c2,1.3,3.1,2.5,3.1,4.2c0,2.9-3.7,5.4-6.6,5.4C742.7,114,740.8,112.8,740.8,111.3z"/>
		<rect id="Rectangle-path" x="53.8" y="108.2" class="st0" width="75.1" height="6.2"/>
		<path id="Shape-56" class="st0" d="M138.2,58.3c-8-7.9-22.1-3-38.1,2.2c-0.9,0.3-1.9,0-2.7-0.6c-0.7-0.6-1.4-1.1-2.2-1.5
			c3.7-2.2,4.9-6.9,2.7-10.5c-1.2-2-3.2-3.3-5.4-3.7l2.8-3.7c0.3-0.4,0.3-0.9,0-1.3l-3.5-4.5c-0.2-0.3-0.6-0.4-0.8-0.2
			c-0.1,0-0.1,0.1-0.2,0.2l-3.5,4.5c-0.3,0.4-0.3,0.9,0,1.3l2.8,3.7c-4.2,0.7-7,4.6-6.4,8.8c0.4,2.2,1.7,4.2,3.6,5.4
			c-0.8,0.4-1.5,0.9-2.2,1.5c-0.7,0.6-1.7,0.9-2.6,0.6c-16-5.1-30.1-10-38.1-2.1c-9.6,9.4,1.5,24.7,5.1,31c2.5,4.1,3.9,8.7,4.2,13.5
			h75.1c0.3-4.8,1.8-9.4,4.2-13.5C136.6,82.9,147.8,67.7,138.2,58.3z M79.9,97.6c-2.9,0.2-5.3-2.5-6.2-6.2l2.4-5.6
			c0.2-0.5,0.1-1.2-0.3-1.6l-7.6-7.6c-0.4-0.4-0.8-0.4-1,0l-3.6,7.5c-0.2,0.6-0.1,1.2,0.4,1.6l5.6,5.7c1.2,4.5-1.9,6.1-3.6,6.1
			c-6,0-10.8-8.1-15.6-16.5s-6.5-14.3-2.8-18.9c6-7.6,22-1.6,34.2,4c-0.1,2.2,0.4,4.3,1.4,6.2C89.6,87,85.3,97.2,79.9,97.6z
			 M132.2,81.1c-4.9,8.4-9.7,16.5-15.6,16.5c-1.7,0-4.7-1.7-3.6-6.1l5.6-5.7c0.5-0.4,0.6-1,0.4-1.6l-3.6-7.5c-0.2-0.4-0.6-0.4-1,0
			l-7.6,7.6c-0.4,0.4-0.6,1-0.3,1.6l2.4,5.6c-0.9,3.7-3.4,6.4-6.2,6.2C97.3,97.3,93,87,99.5,72.5c1-1.9,1.4-4.1,1.4-6.2
			c12.3-5.6,28.2-11.7,34.2-4C138.7,66.8,137,72.8,132.2,81.1L132.2,81.1z"/>
	</g>
</g>
</svg>
