<?xml version="1.0" encoding="utf-8"?>
<!-- Generator: Adobe Illustrator 22.1.0, SVG Export Plug-In . SVG Version: 6.00 Build 0)  -->
<svg version="1.1" id="Layer_1" xmlns="http://www.w3.org/2000/svg" xmlns:xlink="http://www.w3.org/1999/xlink" x="0px" y="0px"
	 viewBox="0 0 792 196.5" style="enable-background:new 0 0 792 196.5;" xml:space="preserve">
<style type="text/css">
	.st0{fill:#231F20;}
</style>
<title>logo-ctl</title>
<g>
	<path class="st0" d="M150.1,91.5c-6-5.3-7.4-12.3-7.4-18.2c0.1-6.3,2.5-12.3,6.9-16.8c3.7-3.7,9.3-6.6,18.7-6.6c3,0,6,0.2,8.9,0.7
		c2.1,0.4,4.2,0.7,6.3,0.9c0.7,0.1,0.8,0.3,0.8,0.7s-0.2,1.2-0.3,3.5c-0.1,2-0.1,5.4-0.2,6.3s-0.2,1.3-0.6,1.3s-0.5-0.4-0.5-1.3
		c0-2.4-0.9-4.6-2.6-6.3c-2.1-1.8-6.9-3.5-12.3-3.5c-8.2,0-12,2.4-14.1,4.5c-4.5,4.3-5.5,9.8-5.5,16c0,11.7,9,22.5,22.2,22.5
		c4.6,0,8.2-0.6,10.7-3.1c1.2-1.5,1.9-3.3,2.3-5.2c0.1-0.7,0.2-0.9,0.6-0.9s0.4,0.4,0.4,0.9c-0.3,2.7-0.8,5.3-1.4,7.9
		c-0.4,1.2-0.5,1.3-1.6,1.8c-2.4,1-7.1,1.4-11.1,1.4C161.2,98.2,155,95.9,150.1,91.5z"/>
	<path class="st0" d="M211,57c12.2,0,21.4,7.4,21.4,19.6c0,11.7-8.7,21.3-21.7,21.3c-14.8,0-21.1-11.1-21.1-20.5
		C189.5,69,196.1,57,211,57z M212.2,95.8c4.9,0,14.6-2.6,14.6-17.7c0-12.5-7.6-19.1-16.1-19.1c-9,0-15.5,5.7-15.5,17
		C195.1,88.2,202.4,95.8,212.2,95.8L212.2,95.8z"/>
	<path class="st0" d="M247,82.2c0,7.7,0.1,10.8,1.1,11.7s3,1.2,7.2,1.2c2.8,0,5.2-0.1,6.5-1.6c0.7-0.9,1.1-1.9,1.3-2.9
		c0.1-0.4,0.2-0.7,0.5-0.7s0.4,0.2,0.4,0.8c-0.1,1.8-0.4,3.5-0.8,5.2c-0.4,1.2-0.5,1.4-3.4,1.4c-3.9,0-6.9-0.1-9.4-0.2
		s-4.3-0.1-5.9-0.1c-0.2,0-1.2,0-2.2,0.1s-2.3,0.1-3.1,0.1c-0.6,0-0.9-0.1-0.9-0.4c0-0.2,0.2-0.4,0.4-0.4c0,0,0,0,0,0
		c0.6,0,1.1-0.1,1.7-0.2c1-0.2,1.2-1.2,1.4-2.8c0.3-3.8,0.4-7.5,0.3-11.3v-9.2c0-8.1,0-9.6-0.1-11.2s-0.4-2.6-2.2-2.9
		c-0.6-0.1-1.2-0.1-1.8-0.1c-0.2,0-0.4-0.2-0.4-0.4c0-0.3,0.2-0.4,0.9-0.4c2.4,0,5.8,0.1,6.1,0.1s4.3-0.1,6-0.1
		c0.6,0,0.9,0.1,0.9,0.4s-0.2,0.4-0.4,0.4c-0.4,0-1.2,0.1-1.8,0.1c-1.6,0.3-1.9,1.1-2,3c-0.1,1.7-0.1,3.1-0.1,11.2V82.2z"/>
	<path class="st0" d="M269.5,72.9c0-8.1,0-9.6-0.1-11.2s-0.4-2.6-2.2-2.9c-0.6-0.1-1.2-0.1-1.9-0.1c-0.2,0-0.4-0.2-0.4-0.4
		c0-0.3,0.2-0.4,0.9-0.4c2.5,0,5.7,0.1,6.2,0.1s3.9-0.1,5.5-0.1c0.6,0,0.9,0.1,0.9,0.4c0,0.2-0.3,0.4-0.5,0.4c-0.5,0-0.9,0-1.4,0.1
		c-1.4,0.2-1.7,1.2-1.8,2.9s-0.1,3.1-0.1,11.2v7.3c0,7.6,1.7,10.7,4,12.8c2.6,2.4,5,2.8,8,2.8c3.2,0,6.2-1.3,8.4-3.7
		c2.5-3,3.1-7.3,3.1-12.7v-6.6c0-8.1-0.1-9.6-0.1-11.2s-0.4-2.6-2.1-2.9c-0.6-0.1-1.2-0.1-1.8-0.1c-0.2,0-0.4-0.2-0.4-0.4
		c0-0.3,0.2-0.4,0.9-0.4c2.4,0,5.5,0.1,5.8,0.1s3-0.1,4.5-0.1c0.6,0,0.9,0.1,0.9,0.4c0,0.2-0.2,0.4-0.4,0.4c-0.5,0-0.9,0-1.4,0.1
		c-1.5,0.3-1.8,1.2-1.9,2.9s-0.1,3.1-0.1,11.2v5.6c0,5.7-0.7,12-5,15.7c-3.2,2.6-7.2,4-11.3,3.8c-1.8,0-7.4-0.1-11.2-3.7
		c-2.6-2.5-4.7-6.1-4.7-13.7L269.5,72.9z"/>
	<path class="st0" d="M354.8,90.5c0.2,1.8,0.5,4.7,2.8,5.4c1.1,0.3,2.3,0.5,3.5,0.5c0.2,0,0.4,0.1,0.4,0.4s-0.5,0.5-1.1,0.5
		c-1.2,0-7.2-0.1-9.2-0.3c-1.3-0.1-1.5-0.3-1.5-0.6c0-0.2,0.2-0.4,0.4-0.4c0.3-0.1,0.4-0.9,0.2-1.8l-2.6-26.4h-0.1l-13,26.7
		c-1.1,2.3-1.4,2.8-1.9,2.8s-0.8-0.5-1.8-2.4c-1.4-2.6-5-9.3-6.3-12.1c-1.6-3.3-6-12.1-6.9-14.2h-0.2L315.2,92
		c-0.1,0.8-0.1,1.8-0.1,2.7c0,0.7,0.5,1.4,1.3,1.5c0.7,0.2,1.4,0.3,2.1,0.3c0.2,0,0.4,0.2,0.4,0.4c0,0.4-0.4,0.5-1,0.5
		c-2,0-4.6-0.2-5-0.2s-3.1,0.2-4.5,0.2c-0.5,0-0.9-0.1-0.9-0.5c0-0.2,0.2-0.4,0.5-0.4c0.5,0,1.1-0.1,1.6-0.2
		c1.8-0.3,1.8-2.2,2.1-4.2l3.9-34.1c0.1-0.6,0.3-0.9,0.6-0.9c0.5,0,0.9,0.3,1.1,0.8l16.3,32.4l15.7-32.4c0.2-0.5,0.5-0.9,0.9-0.9
		s0.7,0.4,0.8,1.4L354.8,90.5z"/>
	<path class="st0" d="M370.4,72.9c0-8.1,0-9.6-0.1-11.2s-0.4-2.8-2.2-3c-0.6-0.1-1.2-0.1-1.9-0.1c-0.2,0-0.4-0.1-0.4-0.3
		s0.2-0.4,0.9-0.4c2.5,0,6,0.1,6.3,0.1c1.3,0,3.8-0.1,6.3-0.1c9,0,11.4,5.2,11.4,8c0,4.1-2.7,6.7-5.5,9.2c4.1,1.2,9.5,5,9.5,10.9
		s-4.4,11.6-13.6,11.6c-1,0-3-0.1-4.7-0.2l-3.5-0.1c-0.1,0-1.1,0.1-2.2,0.1s-2.4,0.1-3.3,0.1c-0.5,0-0.9-0.1-0.9-0.4
		s0.1-0.3,0.4-0.3c0.6,0,1.1-0.1,1.7-0.2c1-0.2,1.2-1.3,1.4-2.9c0.3-3.8,0.4-7.5,0.3-11.3L370.4,72.9z M375,74
		c0,0.4,0.1,0.5,0.4,0.6c1.1,0.2,2.2,0.3,3.3,0.2c3,0,4.2-0.1,5.3-1.3c1.4-1.5,2.1-3.5,2.1-5.6c0-4-2.2-8.4-7.6-8.4
		c-0.9,0-1.8,0.1-2.8,0.2c-0.5,0.1-0.7,0.2-0.7,0.5V74z M375,79.8c0,4,0,10.3,0.1,11.1c0.2,2.5,0.2,3.1,1.8,3.9
		c1.5,0.5,3.1,0.8,4.7,0.7c3.6,0,7.9-1.3,7.9-8c0-3.8-1.9-7.4-5.1-9.6c-1.9-1.2-3.6-1.1-4.9-1.3c-0.7-0.1-3.4-0.1-4.2-0.1
		c-0.2,0-0.3,0.1-0.3,0.4L375,79.8z"/>
	<path class="st0" d="M409.3,82.1c0,5,0,9.2,0.2,11.3c0.2,1.5,0.4,2.5,2,2.8c0.8,0.1,1.6,0.2,2.5,0.2c0.2,0,0.4,0.2,0.4,0.4
		c0,0,0,0,0,0c0,0.2-0.2,0.4-0.9,0.4c-3,0-6.5-0.2-6.8-0.2s-3.7,0.2-5.4,0.2c-0.5,0-0.9-0.1-0.9-0.4c0-0.2,0.2-0.4,0.4-0.4
		c0,0,0,0,0,0c0.6,0,1.1-0.1,1.7-0.2c1-0.2,1.2-1.2,1.4-2.8c0.2-2.2,0.3-6.3,0.3-11.3v-9.2c0-8.1,0-9.6-0.1-11.2s-0.5-2.6-1.7-2.8
		c-0.5-0.1-1.1-0.2-1.7-0.2c-0.2,0-0.4-0.2-0.4-0.4c0-0.3,0.2-0.4,0.9-0.4c1.8,0,5.2,0.1,5.5,0.1s3.7-0.1,5.4-0.1
		c0.6,0,0.9,0.1,0.9,0.4c0,0.2-0.2,0.4-0.4,0.4c-0.5,0-0.9,0-1.4,0.1c-1.5,0.3-1.8,1-1.9,2.9c-0.1,1.7-0.1,3.1-0.1,11.2L409.3,82.1z
		"/>
	<path class="st0" d="M437.3,58.8c0.7-1.7,0.9-2,1.3-2c0.5,0,0.7,0.7,1.3,1.9c1,2.2,9.6,23.8,13,31.7c2,4.7,3.4,5.3,4.6,5.7
		c0.7,0.2,1.4,0.3,2.1,0.3c0.3,0,0.7,0.1,0.7,0.4s-0.6,0.4-1.2,0.4c-0.8,0-4.8,0-8.5-0.1c-1-0.1-1.9-0.1-1.9-0.4s0.1-0.2,0.4-0.4
		c0.5-0.2,0.8-0.8,0.5-1.3c0,0,0-0.1,0-0.1l-4.9-12c-0.1-0.2-0.3-0.4-0.5-0.3h-12.5c-0.3,0-0.5,0.2-0.5,0.4l-3.1,8.3
		c-0.5,1.1-0.7,2.3-0.8,3.5c0,1,0.9,1.4,1.8,1.4h0.5c0.4,0,0.5,0.2,0.5,0.4s-0.3,0.4-0.8,0.4c-1.3,0-4.2-0.2-4.9-0.2
		s-3.2,0.2-5.5,0.2c-0.7,0-1-0.1-1-0.4c0-0.3,0.2-0.4,0.5-0.4c0.5,0,1.1-0.1,1.6-0.1c2.5-0.3,3.5-2.1,4.5-4.8L437.3,58.8z
		 M443.3,80.6c0.2,0,0.2-0.1,0.2-0.4l-5.3-14.3c-0.3-0.8-0.6-0.8-0.9,0l-5,14.3c-0.1,0.2,0,0.4,0.2,0.4H443.3z"/>
	<path class="st0" d="M474.4,108V46.6h3.3V108H474.4z"/>
	<path class="st0" d="M503.5,91.5c-6-5.3-7.4-12.3-7.4-18.2c0.1-6.3,2.5-12.3,6.9-16.8c3.7-3.7,9.3-6.6,18.7-6.6c3,0,6,0.2,8.9,0.7
		c2.1,0.4,4.2,0.7,6.3,0.9c0.7,0.1,0.8,0.3,0.8,0.7s-0.2,1.2-0.3,3.5c-0.1,2-0.1,5.4-0.2,6.3s-0.2,1.3-0.6,1.3s-0.5-0.4-0.5-1.3
		c0-2.4-0.9-4.6-2.6-6.3c-2.2-1.8-6.9-3.5-12.3-3.5c-8.2,0-12,2.4-14.1,4.5c-4.5,4.3-5.5,9.8-5.5,16c0,11.7,9,22.5,22.2,22.5
		c4.6,0,8.2-0.6,10.7-3.1c1.2-1.5,1.9-3.3,2.3-5.2c0.1-0.7,0.2-0.9,0.6-0.9s0.4,0.4,0.4,0.9c-0.3,2.7-0.7,5.3-1.4,7.9
		c-0.4,1.2-0.5,1.3-1.6,1.8c-2.5,1-7.1,1.4-11,1.4C514.5,98.2,508.3,95.9,503.5,91.5z"/>
	<path class="st0" d="M565.3,79.5c0,5.9,0,10.8,0.3,13.3c0.2,1.8,0.5,3.1,2.4,3.4c0.9,0.1,1.8,0.2,2.8,0.2c0.4,0,0.5,0.2,0.5,0.4
		s-0.3,0.5-1,0.5c-3.4,0-7.2-0.2-7.5-0.2s-4.2,0.2-6,0.2c-0.7,0-1-0.1-1-0.5c0-0.2,0.1-0.4,0.5-0.4c0.6,0,1.2-0.1,1.8-0.2
		c1.2-0.2,1.5-1.6,1.8-3.4c0.3-2.6,0.3-7.4,0.3-13.3v-26l-9.1,0.1c-3.8,0.1-5.3,0.5-6.3,2c-0.4,0.6-0.7,1.2-1,1.9
		c-0.2,0.5-0.4,0.6-0.6,0.6s-0.3-0.2-0.3-0.5c0-0.6,1.2-5.9,1.3-6.4s0.4-1.2,0.6-1.2c0.9,0.4,1.8,0.6,2.7,0.7
		c1.8,0.2,4.1,0.3,4.8,0.3h23c1.5,0,2.9-0.1,4.4-0.3c0.9-0.1,1.5-0.3,1.7-0.3s0.3,0.4,0.3,0.7c0,1.8-0.2,6.1-0.2,6.8
		s-0.2,0.8-0.4,0.8s-0.4-0.2-0.5-1l-0.1-0.7c-0.2-1.8-1.7-3.2-7.5-3.4l-7.7-0.1L565.3,79.5z"/>
	<path class="st0" d="M598.6,79.6c0,9,0.2,13,1.4,14.1s2.6,1.4,7.4,1.4c3.2,0,6-0.1,7.4-1.8c0.8-1.1,1.4-2.3,1.6-3.7
		c0-0.5,0.2-0.8,0.5-0.8s0.4,0.2,0.4,0.9c-0.1,2.1-0.5,4.1-0.9,6.2c-0.4,1.4-0.6,1.7-3.9,1.7c-4.4,0-7.6-0.1-10.2-0.2
		s-4.5-0.2-6.3-0.2c-0.2,0-1.3,0.1-2.5,0.1s-2.6,0.1-3.5,0.1c-0.7,0-1-0.1-1-0.5c0-0.2,0.1-0.4,0.5-0.4c0.6,0,1.2-0.1,1.8-0.2
		c1.2-0.2,1.5-1.6,1.8-3.4c0.3-2.6,0.3-7.4,0.3-13.3V68.7c0-9.6,0-11.3-0.1-13.3s-0.6-3.1-2.6-3.5c-0.7-0.1-1.4-0.2-2.1-0.2
		c-0.2,0-0.5-0.1-0.5-0.4s0.3-0.5,1-0.5c2.8,0,6.6,0.2,6.9,0.2s4.8-0.2,6.6-0.2c0.7,0,1,0.1,1,0.5s-0.2,0.4-0.5,0.4
		c-0.7,0-1.3,0.1-2,0.2c-1.8,0.3-2.3,1.4-2.4,3.5c-0.1,2-0.1,3.7-0.1,13.3L598.6,79.6z"/>
	<path class="st0" d="M146.7,125.5c3.6-2.7,8.1-4.1,12.6-4c2.8,0.1,5.6,0.4,8.2,1.1c0.4,0.2,0.9,0.2,1.3,0.2c0,1.1,0.3,4,0.6,6.9
		c-0.3,0.3-0.9,0.4-1.3,0.1c-0.7-3.2-2.8-6.8-9.6-6.8c-7.1,0-13.2,4.5-13.2,14.2s6.2,15.2,13.9,15.2c4.4,0.2,8.3-2.5,9.8-6.7
		c0.4-0.2,0.9-0.1,1.2,0.2c-0.3,2.3-1.1,4.4-2.2,6.4c-0.6,0.1-1.1,0.3-1.6,0.5c-2.4,0.7-4.9,1-7.4,1.1c-4.1,0.1-8.1-0.9-11.6-3.1
		c-4.3-2.9-6.8-7.7-6.6-12.8C140.8,133,142.9,128.5,146.7,125.5z"/>
	<path class="st0" d="M177.8,141.1c-1.2,0-1.3,0.1-1.3,1.3c0,4.7,2.8,8.7,7.7,8.7c1.7,0,3.4-0.8,4.3-2.3c0.3-0.1,0.7,0,0.8,0.3
		c0,0.1,0,0.1,0,0.2c-1.4,2.7-4.3,4.4-7.3,4.3c-2.6,0.1-5.1-1.1-6.8-3.1c-1.3-1.7-2-3.9-2-6.1c0-5.7,3.8-10.5,9.4-10.5
		c4,0,6.6,2.8,6.6,5.6c0,0.4,0,0.8-0.2,1.2c-0.1,0.3-0.8,0.3-2.8,0.3L177.8,141.1z M180.7,139.8c3.4,0,4.5-0.2,4.9-0.5
		c0.1-0.1,0.3-0.3,0.3-0.9c0-1.3-0.9-2.9-3.6-2.9s-5.1,2.5-5.2,4c0,0.1,0,0.2,0.3,0.2L180.7,139.8z"/>
	<path class="st0" d="M194.4,139.7c0-1.8,0-2-1.3-2.9l-0.4-0.3c-0.2-0.2-0.2-0.6,0-0.8c1.6-0.6,3.2-1.4,4.7-2.3
		c0.2,0,0.4,0.1,0.5,0.3c-0.1,1.1-0.1,1.8-0.1,2.2c0,0.3,0.2,0.5,0.5,0.5c0,0,0,0,0,0c2-1.2,4.1-2.4,6.5-2.4c3.9,0,5.5,2.6,5.5,5.8
		v8c0,3.4,0.1,3.8,1.8,4.1l1,0.1c0.3,0.3,0.3,0.9-0.1,1.2c0,0,0,0,0,0c-1.4-0.1-2.8-0.1-4.4-0.1s-3.1,0-4.3,0.1
		c-0.3-0.3-0.4-0.8-0.1-1.2c0,0,0,0,0,0l0.9-0.1c1.7-0.3,1.8-0.7,1.8-4.1v-7c0-2.7-1.2-4.6-4.4-4.6c-1.5-0.1-3,0.5-4,1.6
		c-0.6,0.8-0.8,1.8-0.7,2.8v7.1c0,3.4,0.1,3.8,1.8,4.1l0.8,0.1c0.3,0.3,0.3,0.8-0.1,1.1c0,0,0,0,0,0c-1.3-0.1-2.6-0.1-4.2-0.1
		s-3.1,0-4.4,0.1c-0.3-0.3-0.4-0.8-0.1-1.1c0,0,0,0,0,0l1-0.1c1.7-0.2,1.8-0.7,1.8-4.1L194.4,139.7z"/>
	<path class="st0" d="M221.4,136.7c-0.8,0-0.8,0.1-0.8,1.1v8.7c0,2.7,0.3,5.2,3.4,5.2c0.4,0,0.9-0.1,1.3-0.2c0.4-0.1,1-0.6,1.2-0.6
		c0.4,0,0.6,0.5,0.5,0.8c-1.2,1.4-3,2.2-4.9,2.1c-4,0-4.9-2.2-4.9-5V138c0-1.3-0.1-1.4-1-1.4h-1.3c-0.3-0.3-0.3-0.7-0.1-1
		c1.1-0.3,2.1-0.8,3-1.4c0.8-0.8,1.5-1.7,2-2.8c0.2-0.1,0.8-0.1,1,0.2v2.1c0,0.8,0.1,0.9,0.8,0.9h5.2c0.5,0.6,0.5,1.4,0,2H221.4z"/>
	<path class="st0" d="M233,141.1c-1.2,0-1.3,0.1-1.3,1.3c0,4.7,2.8,8.7,7.8,8.7c1.7,0,3.4-0.8,4.3-2.3c0.3-0.1,0.7,0,0.8,0.4
		c0,0.1,0,0.1,0,0.2c-1.4,2.7-4.3,4.4-7.3,4.3c-2.6,0.1-5.1-1.1-6.8-3.1c-1.3-1.7-2-3.9-2-6.1c0-5.7,3.8-10.5,9.4-10.5
		c4,0,6.6,2.8,6.6,5.6c0,0.4,0,0.8-0.2,1.2c-0.1,0.3-0.8,0.3-2.8,0.3L233,141.1z M235.9,139.8c3.5,0,4.5-0.2,4.9-0.5
		c0.1-0.1,0.3-0.3,0.3-0.9c0-1.3-0.9-2.9-3.6-2.9s-5.1,2.5-5.2,4c0,0.1,0,0.2,0.3,0.2L235.9,139.8z"/>
	<path class="st0" d="M249.5,139.7c0-1.8,0-2-1.3-2.9l-0.4-0.3c-0.2-0.2-0.2-0.6,0-0.8c1.6-0.6,3.2-1.4,4.7-2.3
		c0.2,0,0.4,0.1,0.4,0.3v2.7c0,0.2,0.1,0.4,0.1,0.4c1.6-1.4,3.4-2.8,5.1-2.8c1.1-0.1,2,0.7,2.1,1.8c0,0,0,0.1,0,0.1
		c0,1.1-0.8,2.1-2,2.1c0,0,0,0,0,0c-0.4,0-0.7-0.1-1-0.3c-0.6-0.4-1.3-0.7-2.1-0.7c-0.7,0-1.3,0.4-1.7,0.9c-0.5,1.1-0.7,2.4-0.6,3.6
		v6.3c0,3.4,0.1,3.9,1.9,4.1l1.7,0.1c0.3,0.3,0.3,0.8-0.1,1.1c0,0,0,0,0,0c-2.2-0.1-3.5-0.1-5.2-0.1s-3.1,0-4.3,0.1
		c-0.3-0.3-0.4-0.8-0.1-1.1c0,0,0,0,0,0l0.9-0.1c1.7-0.3,1.8-0.7,1.8-4.1L249.5,139.7z"/>
	<path class="st0" d="M280.8,136.7c-0.8,0-0.8,0.1-0.8,1.4v9.8c0,3.4,0.1,3.9,1.8,4.1l1.7,0.1c0.3,0.3,0.3,0.9-0.1,1.2c0,0,0,0,0,0
		c-2.1-0.1-3.5-0.1-5.1-0.1s-3.1,0-4.5,0.1c-0.4-0.3-0.4-0.8-0.1-1.2c0,0,0,0,0,0l1.1-0.1c1.7-0.2,1.8-0.7,1.8-4.1V138
		c0-1.3,0-1.4-0.9-1.4h-1.6c-0.3-0.2-0.3-0.6-0.1-0.9l2-1c0.4-0.1,0.7-0.5,0.7-0.9c-0.1-2.8,0.4-5.6,1.4-8.2
		c1.2-2.7,3.8-5.9,8.4-5.9c2.5,0,4.6,1.1,4.6,2.8c-0.1,0.9-0.8,1.7-1.8,1.7c-0.4,0-0.9-0.2-1.1-0.6c-0.9-1.2-2.3-1.9-3.7-2.1
		c-1.5,0.1-2.9,1.1-3.3,2.6c-0.8,2.6-1.1,5.2-1,7.9v1.4c0,1.3,0,1.3,0.8,1.3h5.3c0.5,0.6,0.3,1.5-0.3,2L280.8,136.7z"/>
	<path class="st0" d="M306.3,143.7c0,5.8-4,10-9.8,10c-5.1,0.2-9.4-3.8-9.6-8.9c0-0.2,0-0.5,0-0.7c-0.1-5.4,4.1-9.9,9.5-10.1
		c0.1,0,0.3,0,0.4,0c5.1-0.1,9.4,4,9.5,9.2C306.3,143.4,306.3,143.5,306.3,143.7z M296.3,135.5c-3.1,0-5.4,2.9-5.4,8.1
		c0,4.2,1.9,8.8,6,8.8s5.4-4.3,5.4-7.9C302.3,140.5,300.7,135.5,296.3,135.5L296.3,135.5z"/>
	<path class="st0" d="M311.6,139.7c0-1.8,0-2-1.3-2.9l-0.4-0.3c-0.2-0.2-0.2-0.6,0-0.8c1.6-0.6,3.2-1.4,4.7-2.3
		c0.2,0,0.4,0.1,0.4,0.3v2.7c0,0.2,0,0.4,0.1,0.4c1.6-1.4,3.4-2.8,5.1-2.8c1.1-0.1,2,0.7,2.1,1.8c0,0,0,0.1,0,0.1
		c0,1.1-0.8,2.1-2,2.1c0,0,0,0,0,0c-0.4,0-0.7-0.1-1-0.3c-0.6-0.4-1.3-0.7-2.1-0.7c-0.7,0-1.3,0.4-1.7,0.9c-0.5,1.1-0.7,2.4-0.6,3.6
		v6.3c0,3.4,0.1,3.9,1.9,4.1l1.7,0.1c0.3,0.3,0.3,0.8-0.1,1.1c0,0,0,0,0,0c-2.2-0.1-3.5-0.1-5.2-0.1s-3.1,0-4.3,0.1
		c-0.3-0.3-0.4-0.8-0.1-1.1c0,0,0,0,0,0l0.9-0.1c1.7-0.3,1.8-0.7,1.8-4.1L311.6,139.7z"/>
	<path class="st0" d="M351.3,146.1c0,4.9,0.1,5.6,2.8,5.8l1.5,0.1c0.3,0.2,0.2,1-0.1,1.2c-2.7-0.1-4.2-0.1-6.1-0.1s-3.5,0-6.5,0.1
		c-0.3-0.3-0.3-0.8,0-1.1c0,0,0,0,0,0l1.7-0.1c2.6-0.2,2.9-0.9,2.9-5.8v-20.8c0-1.4,0-1.5-1.4-1.5h-2.6c-2,0-4.6,0.1-5.7,1.2
		c-0.9,0.9-1.7,2-2.1,3.2c-0.4,0.2-1,0.1-1.2-0.3c0.8-2.3,1.4-4.6,1.8-7c0.3-0.1,0.6-0.1,0.9,0c0.3,1.5,1.8,1.4,4,1.4H360
		c2.5,0,2.9-0.1,3.6-1.3c0.2-0.1,0.7,0,0.8,0.1c-0.5,2.3-0.8,4.7-0.7,7.1c-0.3,0.3-0.9,0.4-1.2,0.1c-0.1-1.2-0.5-2.9-1.2-3.4
		c-1.1-0.8-2.9-1.2-5.4-1.2h-3.3c-1.4,0-1.4,0-1.4,1.6L351.3,146.1z"/>
	<path class="st0" d="M366.3,141.1c-1.2,0-1.3,0.1-1.3,1.3c0,4.7,2.8,8.7,7.7,8.7c1.7,0,3.4-0.8,4.3-2.3c0.3-0.1,0.7,0,0.8,0.4
		c0,0.1,0,0.1,0,0.2c-1.4,2.7-4.3,4.4-7.3,4.3c-2.6,0.1-5.1-1.1-6.8-3.1c-1.3-1.7-2-3.9-2-6.1c0-5.7,3.8-10.5,9.4-10.5
		c4,0,6.6,2.8,6.6,5.6c0,0.4,0,0.8-0.2,1.2c-0.1,0.3-0.8,0.3-2.8,0.3L366.3,141.1z M369.2,139.8c3.5,0,4.5-0.2,4.9-0.5
		c0.1-0.1,0.3-0.3,0.3-0.9c0-1.3-0.9-2.9-3.6-2.9s-5.1,2.5-5.2,4c0,0.1,0,0.2,0.3,0.2L369.2,139.8z"/>
	<path class="st0" d="M390,143.4c0.7-0.2,0.8-0.6,0.8-1.4l0-2.1c0-1.7-0.5-4.1-3.4-4.1c-1.3,0-2.9,0.6-3,2.1c0,0.7-0.1,1.3-0.5,1.6
		c-0.8,0.5-1.7,0.9-2.7,0.9c-0.3,0-0.6-0.2-0.7-0.5c0,0,0-0.1,0-0.1c0-2.4,5.3-5.7,8.7-5.7s5,2,4.9,5.4l-0.3,8.1
		c-0.1,2.1,0.3,4.1,2.1,4.1c0.4,0,0.8-0.1,1.2-0.3c0.2-0.1,0.5-0.3,0.6-0.3s0.3,0.3,0.3,0.6c-0.9,1.3-2.4,2-3.9,2.1
		c-1.2,0-2.3-0.5-3-1.4c-0.2-0.3-0.5-0.6-0.7-0.6c-0.6,0.2-1.3,0.5-1.8,0.9c-1,0.7-2.2,1.1-3.4,1.2c-1.2,0.1-2.3-0.3-3.3-1.1
		c-0.9-0.8-1.4-2-1.4-3.3c0-1.8,0.9-2.9,3.9-4L390,143.4z M387.1,151.6c1-0.1,2-0.5,2.8-1.2c0.6-0.6,0.6-1.2,0.6-2.2l0.1-2.8
		c0-0.5-0.2-0.6-0.5-0.6c-0.7,0.1-1.3,0.2-1.9,0.5c-2.8,0.9-4.1,1.6-4.1,3.4c0,1.6,1.3,2.8,2.8,2.8
		C387,151.6,387.1,151.6,387.1,151.6L387.1,151.6z"/>
	<path class="st0" d="M414.9,134.9c0.5,0.5,0.7,1.2,0.7,1.9c0,0.9-0.5,1.7-1,1.7c-0.3,0-0.5-0.1-0.6-0.3c-1.1-1.5-2.8-2.4-4.7-2.5
		c-3.3,0-6.4,2.6-6.4,7.5c0,3.6,2.5,8,7.5,8c2.1,0.1,4.1-1,5.2-2.8c0.4-0.1,0.8,0.2,0.8,0.6c0,0,0,0,0,0c-1.4,3-4.5,4.8-7.8,4.8
		c-2.4,0.1-4.7-0.8-6.4-2.4c-1.8-1.8-2.8-4.3-2.7-6.9c0-5,3.5-10.4,11.3-10.4C412.1,134.1,413.5,134.3,414.9,134.9z"/>
	<path class="st0" d="M420.6,126.8c0-2.8,0-3-1.5-3.9l-0.5-0.3c-0.2-0.3-0.2-0.7,0-0.9c1.7-0.5,3.4-1.2,5-2c0.2,0,0.4,0.1,0.5,0.3
		c0,1.4-0.1,3.7-0.1,5.8v9.8c0,0.4,0,0.8,0.2,0.9c1.8-1.5,4-2.3,6.3-2.4c4.4,0,6,2.8,6,6v7.8c0,3.4,0.1,3.9,1.8,4.1l1.3,0.1
		c0.3,0.3,0.3,0.9-0.1,1.2c0,0,0,0,0,0c-1.7-0.1-3-0.1-4.7-0.1s-3.1,0-4.3,0.1c-0.3-0.3-0.4-0.8-0.1-1.2l0.9-0.1
		c1.7-0.3,1.8-0.7,1.8-4.1v-6.7c0-3-1.5-5-4.4-5c-1.3,0-2.6,0.4-3.6,1.3c-0.8,0.7-1,0.9-1,2.6v7.8c0,3.4,0.1,3.8,1.8,4.1l1,0.1
		c0.3,0.2,0.2,1-0.1,1.2c-1.4-0.1-2.8-0.1-4.4-0.1s-3.1,0-4.6,0.1c-0.3-0.3-0.4-0.8-0.1-1.1c0,0,0,0,0,0l1.2-0.1
		c1.7-0.2,1.8-0.7,1.8-4.1L420.6,126.8z"/>
	<path class="st0" d="M445.5,139.7c0-1.8,0-2-1.3-2.9l-0.4-0.3c-0.2-0.2-0.2-0.6,0-0.8c1.7-0.6,3.3-1.4,4.8-2.3
		c0.2,0,0.4,0.1,0.5,0.3c-0.1,1.6-0.2,3.9-0.2,5.8v8.4c0,3.4,0.1,3.8,1.8,4.1l1,0.1c0.3,0.3,0.3,0.9-0.1,1.2c0,0,0,0,0,0
		c-1.4-0.1-2.8-0.1-4.4-0.1s-3.1,0-4.4,0.1c-0.4-0.3-0.4-0.8-0.1-1.2c0,0,0,0,0,0l1-0.1c1.7-0.2,1.8-0.7,1.8-4.1L445.5,139.7z
		 M449.4,126.4c-0.1,1.3-1.2,2.4-2.5,2.3c-1.2-0.1-2.2-1-2.3-2.2c0-1.3,1-2.5,2.4-2.5c0,0,0.1,0,0.1,0c1.3,0,2.4,1,2.4,2.3
		C449.4,126.3,449.4,126.4,449.4,126.4z"/>
	<path class="st0" d="M457.7,139.7c0-1.8,0-2-1.3-2.9l-0.4-0.3c-0.2-0.2-0.2-0.6,0-0.8c1.6-0.6,3.2-1.4,4.7-2.3
		c0.2,0,0.4,0.1,0.5,0.3c-0.1,1.1-0.1,1.8-0.1,2.2c0,0.3,0.2,0.5,0.5,0.5c0,0,0,0,0,0c2-1.2,4.1-2.4,6.5-2.4c3.9,0,5.5,2.6,5.5,5.8
		v8c0,3.4,0.1,3.8,1.8,4.1l1,0.1c0.3,0.3,0.3,0.9-0.1,1.2c0,0,0,0,0,0c-1.4-0.1-2.8-0.1-4.4-0.1s-3.1,0-4.3,0.1
		c-0.3-0.3-0.4-0.8-0.1-1.2c0,0,0,0,0,0l0.9-0.1c1.7-0.3,1.8-0.7,1.8-4.1v-7c0-2.7-1.2-4.6-4.4-4.6c-1.5-0.1-3,0.5-4,1.6
		c-0.6,0.8-0.8,1.8-0.7,2.8v7.1c0,3.4,0.1,3.8,1.8,4.1l0.8,0.1c0.3,0.3,0.3,0.8-0.1,1.1c0,0,0,0,0,0c-1.3-0.1-2.6-0.1-4.2-0.1
		s-3.1,0-4.4,0.1c-0.4-0.3-0.4-0.8-0.1-1.2c0,0,0,0,0,0l1-0.1c1.7-0.2,1.8-0.7,1.8-4.1L457.7,139.7z"/>
	<path class="st0" d="M498.4,135.7c0.5,0.2,0.4,1.8-0.3,1.9h-3.4c0.1,0.8,0.1,1.6,0.1,2.4c0,3.2-1.9,7.4-7.8,7.4
		c-0.7,0-1.4-0.1-2-0.1c-0.6,0.3-2.1,1.2-2.1,2.6c0,1.1,1.1,2,3.3,2c1.6,0,3.5-0.1,5.5-0.1c2.6,0,6.5,0.5,6.5,5.1
		c0,5.1-5.5,8.8-11.6,8.8c-5.7,0-7.7-3.1-7.7-5.4c0-0.6,0.1-1.2,0.5-1.7c0.8-0.8,2.1-2.1,3.2-3.1c0.4-0.4,0.8-0.8,0.4-1.1
		c-1.8-0.5-3.4-2.1-3.4-3.7c0-0.2,0.2-0.4,0.7-0.8c0.9-0.6,1.7-1.3,2.5-2.1c0.2-0.2,0.4-0.6,0.5-0.9c-2.1-1.1-3.5-3.2-3.5-5.6
		c0-4,3.5-7,7.6-7c1.5,0,3.1,0.3,4.5,0.9c0.9,0.5,1.8,0.8,2.8,0.8L498.4,135.7z M488.6,154.6c-1.5,0-3.4,0.1-4,0.5
		c-1.4,0.9-2.2,2.3-2.2,3.9c0,2.5,2,4.6,6.2,4.6s6.9-2.3,6.9-5c0-2.9-2-4.1-5.3-4.1L488.6,154.6z M491.5,141.2
		c0-3.2-1.3-5.8-4.1-5.8c-2.2,0-3.9,2.1-3.9,5.2s2,5.5,4.2,5.5C490.2,146.1,491.5,144.1,491.5,141.2L491.5,141.2z"/>
	<path class="st0" d="M521.1,143.4c0.7-0.2,0.8-0.6,0.8-1.4v-2.1c0-1.7-0.5-4.1-3.4-4.1c-1.3,0-2.9,0.6-3,2.1c0,0.7-0.1,1.3-0.5,1.6
		c-0.8,0.5-1.7,0.9-2.7,0.9c-0.3,0-0.6-0.2-0.7-0.5c0,0,0-0.1,0-0.1c0-2.4,5.3-5.7,8.7-5.7s5,2,4.8,5.4l-0.3,8.1
		c-0.1,2.1,0.3,4.1,2.1,4.1c0.4,0,0.8-0.1,1.2-0.3c0.2-0.1,0.5-0.3,0.6-0.3s0.3,0.3,0.3,0.6c-0.9,1.3-2.4,2-3.9,2.1
		c-1.2,0-2.3-0.5-3-1.4c-0.2-0.3-0.5-0.6-0.7-0.6c-0.6,0.2-1.3,0.5-1.8,0.9c-1,0.7-2.2,1.1-3.4,1.2c-1.2,0.1-2.3-0.3-3.3-1.1
		c-0.9-0.8-1.5-2-1.5-3.3c0-1.8,0.9-2.9,3.9-4L521.1,143.4z M518.2,151.6c1-0.1,2-0.5,2.8-1.2c0.6-0.6,0.6-1.2,0.6-2.2l0.1-2.8
		c0-0.5-0.2-0.6-0.5-0.6c-0.7,0.1-1.3,0.2-1.9,0.5c-2.8,0.9-4.1,1.6-4.1,3.4c0,1.6,1.3,2.8,2.8,2.8
		C518.1,151.6,518.1,151.6,518.2,151.6z"/>
	<path class="st0" d="M534.3,139.7c0-1.8,0-2-1.3-2.9l-0.4-0.3c-0.2-0.2-0.2-0.6,0-0.8c1.6-0.6,3.2-1.4,4.7-2.3
		c0.2,0,0.4,0.1,0.5,0.3c-0.1,1.1-0.1,1.8-0.1,2.2c0,0.3,0.2,0.5,0.5,0.5c0,0,0,0,0,0c2-1.2,4.2-2.4,6.5-2.4c3.9,0,5.5,2.6,5.5,5.8
		v8c0,3.4,0.1,3.8,1.8,4.1l1,0.1c0.3,0.3,0.3,0.9-0.1,1.2c0,0,0,0,0,0c-1.4-0.1-2.8-0.1-4.4-0.1s-3.1,0-4.3,0.1
		c-0.3-0.3-0.4-0.8-0.1-1.2c0,0,0,0,0,0l0.9-0.1c1.7-0.3,1.8-0.7,1.8-4.1v-7c0-2.7-1.2-4.6-4.4-4.6c-1.5-0.1-3,0.5-4,1.6
		c-0.6,0.8-0.8,1.8-0.7,2.8v7.1c0,3.4,0.1,3.8,1.8,4.1l0.8,0.1c0.3,0.3,0.3,0.9-0.1,1.2c0,0,0,0,0,0c-1.3-0.1-2.6-0.1-4.2-0.1
		s-3.1,0-4.4,0.1c-0.3-0.3-0.4-0.8-0.1-1.1c0,0,0,0,0,0l1-0.1c1.7-0.2,1.8-0.7,1.8-4.1L534.3,139.7z"/>
	<path class="st0" d="M573.2,146.3c0,3.7,0,5.4,1.3,5.4c0.7-0.1,1.4-0.2,2-0.5c0.3,0.1,0.4,1.3,0,1.5c-2.1,0.3-4.2,0.8-6.2,1.5
		c-0.3,0-0.5-0.1-0.5-0.4V153c0-0.5,0-1-0.1-1.4h-0.2c-1.7,1.3-3.7,2.1-5.9,2.1c-5.2,0-8.6-4.1-8.6-9c0-6.5,4.9-10.7,11.3-10.7
		c1.1,0,2.1,0.1,3.1,0.4c0.2,0,0.3-0.3,0.3-0.7v-7c0-2.8,0-3-1.4-3.9l-0.5-0.3c-0.2-0.3-0.2-0.7,0-0.9c1.7-0.5,3.4-1.2,5-2
		c0.2,0,0.4,0.1,0.5,0.3c0,1.4-0.1,3.7-0.1,5.8L573.2,146.3z M569.8,139.3c0.1-0.6-0.1-1.3-0.5-1.8c-0.9-1.3-2.4-2-3.9-2
		c-4.2,0-6.4,3.7-6.4,7.7c0,4.2,2.4,8.3,7,8.3c1.3,0,2.6-0.5,3.6-1.3c0.3-0.5,0.4-1.1,0.3-1.7L569.8,139.3z"/>
	<path class="st0" d="M594.8,129.3c0-4.9-0.1-5.7-3-5.9l-1.2-0.1c-0.3-0.2-0.2-1,0.1-1.2c2.6,0.1,4.2,0.1,6.1,0.1s3.4,0,5.7-0.1
		c0.3,0.1,0.4,1,0.1,1.2l-1.1,0.1c-2.8,0.2-2.8,1-2.8,5.9v16.2c0,2.9,0.1,4.1,1,5c0.5,0.5,1.4,1.1,5.1,1.1c4,0,5-0.2,5.7-0.6
		c0.9-0.6,2.1-2.2,3.1-4.6c0.3-0.2,1.2,0,1.2,0.3c-0.5,2.2-1.1,4.4-2,6.5c-2.4-0.1-6.8-0.1-11.6-0.1h-4.3c-2,0-3.5,0-6.1,0.1
		c-0.3-0.3-0.3-0.8-0.1-1.2l1.4-0.1c2.7-0.3,2.8-0.9,2.8-5.8L594.8,129.3z"/>
	<path class="st0" d="M621.6,141.1c-1.2,0-1.3,0.1-1.3,1.3c0,4.7,2.8,8.7,7.7,8.7c1.7,0,3.4-0.8,4.3-2.3c0.3-0.1,0.7,0,0.8,0.4
		c0,0.1,0,0.1,0,0.2c-1.4,2.7-4.3,4.4-7.3,4.3c-2.6,0.1-5.1-1.1-6.8-3.1c-1.3-1.7-2-3.9-2-6.1c0-5.7,3.8-10.5,9.4-10.5
		c4,0,6.6,2.8,6.6,5.6c0,0.4,0,0.8-0.2,1.2c-0.1,0.3-0.8,0.3-2.8,0.3L621.6,141.1z M624.5,139.8c3.5,0,4.5-0.2,4.8-0.5
		c0.1-0.1,0.3-0.3,0.3-0.9c0-1.3-0.9-2.9-3.6-2.9s-5.1,2.5-5.2,4c0,0.1,0,0.2,0.3,0.2L624.5,139.8z"/>
	<path class="st0" d="M645.4,143.4c0.7-0.2,0.8-0.6,0.8-1.4v-2.1c0-1.7-0.5-4.1-3.4-4.1c-1.3,0-2.9,0.6-3,2.1c0,0.7-0.1,1.3-0.5,1.6
		c-0.8,0.5-1.7,0.9-2.7,0.9c-0.3,0-0.6-0.2-0.7-0.5c0,0,0-0.1,0-0.1c0-2.4,5.3-5.7,8.7-5.7s5,2,4.8,5.4l-0.3,8.1
		c-0.1,2.1,0.3,4.1,2.2,4.1c0.4,0,0.8-0.1,1.2-0.3c0.2-0.1,0.5-0.3,0.6-0.3s0.3,0.3,0.3,0.6c-0.9,1.3-2.4,2-3.9,2.1
		c-1.2,0-2.3-0.5-3-1.4c-0.2-0.3-0.5-0.6-0.7-0.6c-0.6,0.2-1.3,0.5-1.8,0.9c-1,0.7-2.2,1.1-3.4,1.2c-1.2,0.1-2.3-0.3-3.3-1.1
		c-0.9-0.8-1.4-2-1.4-3.3c0-1.8,0.9-2.9,3.9-4L645.4,143.4z M642.5,151.6c1-0.1,2-0.5,2.8-1.2c0.6-0.6,0.6-1.2,0.6-2.2l0.1-2.8
		c0-0.5-0.2-0.6-0.5-0.6c-0.7,0.1-1.3,0.2-1.9,0.5c-2.8,0.9-4.1,1.6-4.1,3.4c0,1.6,1.3,2.8,2.8,2.8
		C642.4,151.6,642.5,151.6,642.5,151.6z"/>
	<path class="st0" d="M658.6,139.7c0-1.8,0-2-1.3-2.9l-0.4-0.3c-0.2-0.3-0.2-0.6,0-0.8c1.6-0.6,3.2-1.4,4.7-2.3
		c0.2,0,0.4,0.1,0.4,0.3v2.7c0,0.2,0,0.4,0.1,0.4c1.6-1.4,3.4-2.8,5.1-2.8c1.1-0.1,2,0.7,2.1,1.8c0,0,0,0.1,0,0.1
		c0,1.1-0.8,2.1-2,2.1c0,0,0,0,0,0c-0.4,0-0.7-0.1-1-0.3c-0.6-0.4-1.3-0.7-2-0.7c-0.7,0-1.3,0.4-1.7,0.9c-0.5,1.1-0.7,2.4-0.6,3.6
		v6.3c0,3.4,0.1,3.9,1.9,4.1l1.7,0.1c0.3,0.3,0.3,0.9-0.1,1.2c0,0,0,0,0,0c-2.2-0.1-3.5-0.1-5.2-0.1s-3.1,0-4.3,0.1
		c-0.3-0.3-0.4-0.8-0.1-1.2c0,0,0,0,0,0l0.9-0.1c1.7-0.3,1.8-0.7,1.8-4.1L658.6,139.7z"/>
	<path class="st0" d="M674.2,139.7c0-1.8,0-2-1.3-2.9l-0.4-0.3c-0.2-0.2-0.2-0.6,0-0.8c1.6-0.6,3.2-1.4,4.7-2.3
		c0.2,0,0.4,0.1,0.5,0.3c-0.1,0.7-0.1,1.5-0.1,2.2c0,0.3,0.2,0.5,0.5,0.5c0,0,0,0,0,0c2-1.2,4.2-2.4,6.5-2.4c3.9,0,5.5,2.6,5.5,5.8
		v8c0,3.4,0.1,3.8,1.8,4.1l1,0.1c0.3,0.3,0.3,0.9-0.1,1.2c-1.4-0.1-2.8-0.1-4.4-0.1s-3.1,0-4.3,0.1c-0.3-0.3-0.4-0.8-0.1-1.2
		l0.9-0.1c1.7-0.3,1.8-0.7,1.8-4.1v-7c0-2.7-1.2-4.6-4.4-4.6c-1.5-0.1-3,0.5-4,1.6c-0.6,0.8-0.8,1.8-0.7,2.8v7.1
		c0,3.4,0.1,3.8,1.8,4.1l0.8,0.1c0.3,0.3,0.3,0.8-0.1,1.1c0,0,0,0,0,0c-1.3-0.1-2.6-0.1-4.2-0.1s-3.1,0-4.4,0.1
		c-0.3-0.3-0.4-0.8-0.1-1.2c0,0,0,0,0,0l1-0.1c1.7-0.2,1.8-0.7,1.8-4.1L674.2,139.7z"/>
	<path class="st0" d="M698.9,139.7c0-1.8,0-2-1.3-2.9l-0.4-0.3c-0.2-0.2-0.2-0.6,0-0.8c1.7-0.6,3.3-1.4,4.8-2.3
		c0.2,0,0.4,0.1,0.5,0.3c-0.1,1.6-0.2,3.9-0.2,5.8v8.4c0,3.4,0.1,3.8,1.8,4.1l1,0.1c0.3,0.3,0.3,0.8-0.1,1.1c0,0,0,0,0,0
		c-1.4-0.1-2.8-0.1-4.4-0.1s-3.1,0-4.4,0.1c-0.3-0.3-0.4-0.8-0.1-1.1c0,0,0,0,0,0l1-0.1c1.7-0.2,1.8-0.7,1.8-4.1L698.9,139.7z
		 M702.8,126.4c-0.1,1.3-1.2,2.4-2.5,2.3c-1.2-0.1-2.2-1-2.3-2.2c-0.1-1.3,1-2.5,2.3-2.5c0.1,0,0.1,0,0.2,0c1.3,0,2.3,1,2.3,2.3
		C702.8,126.3,702.8,126.4,702.8,126.4z"/>
	<path class="st0" d="M711.1,139.7c0-1.8,0-2-1.3-2.9l-0.4-0.3c-0.2-0.3-0.2-0.6,0-0.8c1.6-0.6,3.2-1.4,4.7-2.3
		c0.2,0,0.4,0.1,0.5,0.3c-0.1,1.1-0.1,1.8-0.1,2.2c0,0.3,0.2,0.5,0.5,0.5c0,0,0,0,0,0c2-1.2,4.2-2.4,6.5-2.4c3.9,0,5.5,2.6,5.5,5.8
		v8c0,3.4,0.1,3.8,1.8,4.1l1,0.1c0.3,0.3,0.3,0.9-0.1,1.2c0,0,0,0,0,0c-1.4-0.1-2.8-0.1-4.4-0.1s-3.1,0-4.3,0.1
		c-0.3-0.3-0.4-0.8-0.1-1.2c0,0,0,0,0,0l0.9-0.1c1.7-0.3,1.8-0.7,1.8-4.1v-7c0-2.7-1.2-4.6-4.4-4.6c-1.5-0.1-3,0.5-4,1.6
		c-0.6,0.8-0.8,1.8-0.7,2.8v7.1c0,3.4,0.1,3.8,1.8,4.1l0.8,0.1c0.3,0.3,0.3,0.9-0.1,1.2c0,0,0,0,0,0c-1.3-0.1-2.6-0.1-4.2-0.1
		s-3.1,0-4.4,0.1c-0.3-0.3-0.4-0.8-0.1-1.1c0,0,0,0,0,0l1-0.1c1.7-0.2,1.8-0.7,1.8-4.1L711.1,139.7z"/>
	<path class="st0" d="M751.8,135.7c0.5,0.2,0.4,1.8-0.3,1.9h-3.3c0.1,0.8,0.1,1.6,0.1,2.4c0,3.2-1.9,7.4-7.8,7.4
		c-0.7,0-1.3-0.1-2-0.1c-0.6,0.3-2.1,1.2-2.1,2.6c0,1.1,1.1,2,3.3,2c1.6,0,3.5-0.1,5.5-0.1c2.6,0,6.5,0.5,6.5,5.1
		c0,5.1-5.5,8.8-11.6,8.8c-5.7,0-7.7-3.1-7.7-5.4c0-0.6,0.1-1.2,0.5-1.7c0.8-0.8,2.1-2.1,3.2-3.1c0.4-0.4,0.8-0.8,0.4-1.1
		c-1.8-0.5-3.4-2.1-3.4-3.7c0-0.2,0.2-0.4,0.7-0.8c0.9-0.6,1.7-1.3,2.5-2.1c0.2-0.2,0.4-0.6,0.5-0.9c-2.2-1-3.6-3.3-3.6-5.7
		c0-4,3.5-7,7.6-7c1.5,0,3.1,0.3,4.5,0.9c0.9,0.5,1.8,0.8,2.8,0.8L751.8,135.7z M742,154.6c-1.5,0-3.4,0.1-4,0.5
		c-1.4,0.9-2.2,2.3-2.2,3.9c0,2.5,2,4.6,6.2,4.6s6.9-2.3,6.9-5c0-2.9-2-4.1-5.3-4.1L742,154.6z M744.9,141.2c0-3.2-1.3-5.8-4.2-5.8
		c-2.2,0-3.9,2.1-3.9,5.2s2,5.5,4.2,5.5C743.6,146.1,744.9,144.1,744.9,141.2z"/>
	<rect x="50.9" y="93.1" class="st0" width="58.8" height="4.8"/>
	<path class="st0" d="M117,53.1c-6.3-6.2-17.3-2.3-29.9,1.7c-0.7,0.2-1.5,0-2.1-0.5c-0.5-0.4-1.1-0.8-1.7-1.2
		c2.9-1.6,3.9-5.3,2.2-8.2c-0.9-1.6-2.5-2.7-4.3-3l2.2-2.8c0.2-0.3,0.2-0.7,0-1l-2.8-3.5c-0.1-0.1-0.2-0.2-0.4-0.2
		c-0.2,0-0.3,0.1-0.4,0.2l-2.8,3.5c-0.2,0.3-0.2,0.7,0,1l2.2,2.8c-3.3,0.5-5.5,3.5-5,6.8c0.3,1.8,1.3,3.4,2.9,4.3
		c-0.6,0.3-1.2,0.7-1.7,1.2c-0.6,0.5-1.3,0.7-2.1,0.5c-12.5-4-23.6-7.9-29.9-1.7c-7.5,7.4,1.2,19.3,4,24.2c1.9,3.4,3.3,7.5,3.3,10.7
		h58.8c0-3.2,1.4-7.2,3.3-10.7C115.8,72.4,124.6,60.5,117,53.1z M71.4,83.9c-2.3,0.2-4.2-2-4.9-4.8l1.9-4.4c0.2-0.4,0.1-0.9-0.2-1.2
		l-5.9-5.9c-0.3-0.3-0.6-0.3-0.8,0l-2.8,5.9c-0.2,0.4,0,0.9,0.3,1.2l4.4,4.5c0.9,3.5-1.5,4.8-2.8,4.8c-4.7,0-8.4-6.4-12.3-13
		S43.2,59.8,46,56.2c4.7-6,17.2-1.2,26.8,3.2c0,1.7,0.3,3.4,1.1,4.9C79,75.6,75.6,83.6,71.4,83.9z M112.4,71
		c-3.8,6.6-7.6,13-12.2,13c-1.3,0-3.7-1.3-2.8-4.8l4.4-4.5c0.4-0.3,0.5-0.8,0.3-1.2l-2.8-5.9c-0.2-0.3-0.5-0.3-0.8,0l-5.9,5.9
		c-0.3,0.3-0.4,0.8-0.2,1.2l1.9,4.4c-0.7,2.9-2.6,5-4.9,4.8c-4.2-0.3-7.7-8.3-2.6-19.7c0.8-1.5,1.1-3.2,1.1-4.9
		c9.7-4.4,22.1-9.1,26.8-3.2C117.5,59.8,116.1,64.5,112.4,71L112.4,71z"/>
</g>
</svg>
